<svg viewBox="0 0 600 400" xmlns="http://www.w3.org/2000/svg">
<g transform="translate(72, 364)">
<g>
<g>
<rect fill="" height="10" width="10" x="378.2240682532555" y="-208.31344653510786"/>
<rect fill="" height="10" width="10" x="138.11629995509654" y="-344.0637907296925"/>
<rect fill="" height="10" width="10" x="41.12483161203413" y="-310.98439651216154"/>
<rect fill="" height="10" width="10" x="93.28468792096992" y="-5.31206975676916"/>
<rect fill="" height="10" width="10" x="50.60844185002245" y="-344.2198256080771"/>
<rect fill="" height="10" width="10" x="95.44005388414908" y="-276.50068838916934"/>
<rect fill="" height="10" width="10" x="1.2505612932195778" y="-107.82698485543827"/>
<rect fill="" height="10" width="10" x="92.20700493938033" y="-343.75172097292335"/>
<rect fill="" height="10" width="10" x="1.2505612932195778" y="-39.63974300137678"/>
<rect fill="" height="10" width="10" x="423.9178266726538" y="-276.0325837540156"/>
<rect fill="" height="10" width="10" x="-5" y="-5.7801743919229"/>
<rect fill="" height="10" width="10" x="283.8190390660081" y="-276.50068838916934"/>
<rect fill="" height="10" width="10" x="333.17691962281094" y="-311.1404313905461"/>
<rect fill="" height="10" width="10" x="139.84059272563988" y="-39.171638366223036"/>
<rect fill="" height="10" width="10" x="468.3183655141446" y="-73.65534648921523"/>
<rect fill="" height="10" width="10" x="138.54737314773237" y="-39.63974300137678"/>
<rect fill="" height="10" width="10" x="464.65424337674" y="-242.01698026617714"/>
<rect fill="" height="10" width="10" x="373.6977997305793" y="-140.43827443781552"/>
<rect fill="" height="10" width="10" x="462.92995060619666" y="-5"/>
<rect fill="" height="10" width="10" x="421.5469241131567" y="-5.624139513538321"/>
<rect fill="" height="10" width="10" x="326.9263583295914" y="-311.1404313905461"/>
<rect fill="" height="10" width="10" x="326.9263583295914" y="-276.50068838916934"/>
<rect fill="" height="10" width="10" x="464.65424337674" y="-72.71913721890776"/>
<rect fill="" height="10" width="10" x="52.5482712168837" y="-72.71913721890776"/>
<rect fill="" height="10" width="10" x="326.2797485406376" y="-140.90637907296926"/>
<rect fill="" height="10" width="10" x="328.6506511001347" y="-72.71913721890776"/>
<rect fill="" height="10" width="10" x="329.2972608890885" y="-345"/>
<rect fill="" height="10" width="10" x="93.71576111360575" y="-310.5162918770078"/>
<rect fill="" height="10" width="10" x="420.90031432420295" y="-39.4837081229922"/>
<rect fill="" height="10" width="10" x="423.9178266726538" y="-107.04681046351537"/>
<rect fill="" height="10" width="10" x="98.242029636282" y="-344.84396512161544"/>
<rect fill="" height="10" width="10" x="380.8105074090705" y="-6.404313905461221"/>
<rect fill="" height="10" width="10" x="381.45711719802426" y="-6.248279027076641"/>
<rect fill="" height="10" width="10" x="145.2290076335878" y="-276.6567232675539"/>
<rect fill="" height="10" width="10" x="-5" y="-141.84258834327673"/>
<rect fill="" height="10" width="10" x="136.60754378087114" y="-39.4837081229922"/>
<rect fill="" height="10" width="10" x="332.09923664122135" y="-344.3758604864617"/>
<rect fill="" height="10" width="10" x="425.64211944319715" y="-5.31206975676916"/>
<rect fill="" height="10" width="10" x="52.5482712168837" y="-141.84258834327673"/>
<rect fill="" height="10" width="10" x="141.7804220925011" y="-309.7361174850849"/>
<rect fill="" height="10" width="10" x="282.9568926807364" y="-208.15741165672327"/>
<rect fill="" height="10" width="10" x="324.5554557700943" y="-38.85956860945388"/>
<rect fill="" height="10" width="10" x="-1.9824876515491692" y="-39.63974300137678"/>
<rect fill="" height="10" width="10" x="184.8877413560844" y="-40.263882514915096"/>
<rect fill="" height="10" width="10" x="44.57341715312079" y="-310.67232675539236"/>
<rect fill="" height="10" width="10" x="89.62056578356534" y="-242.01698026617714"/>
<rect fill="" height="10" width="10" x="134.66771441400988" y="-208.625516291877"/>
<rect fill="" height="10" width="10" x="278.4306241580602" y="-209.09362092703074"/>
<rect fill="" height="10" width="10" x="2.32824427480916" y="-38.85956860945388"/>
<rect fill="" height="10" width="10" x="-1.5514144589133365" y="-73.49931161083066"/>
<rect fill="" height="10" width="10" x="466.59407274360126" y="-73.9674162459844"/>
<rect fill="" height="10" width="10" x="-1.1203412662775034" y="-5.31206975676916"/>
<rect fill="" height="10" width="10" x="465.51638976201167" y="-310.828361633777"/>
<rect fill="" height="10" width="10" x="284.68118545127976" y="-39.171638366223036"/>
<rect fill="" height="10" width="10" x="140.91827570722947" y="-140.90637907296926"/>
<rect fill="" height="10" width="10" x="285.3277952402335" y="-276.50068838916934"/>
<rect fill="" height="10" width="10" x="415.51189941625506" y="-277.28086278109225"/>
<rect fill="" height="10" width="10" x="468.3183655141446" y="-242.32905002294632"/>
<rect fill="" height="10" width="10" x="424.9955096542434" y="-140.75034419458467"/>
<rect fill="" height="10" width="10" x="472.413560844185" y="-107.98301973382286"/>
<rect fill="" height="10" width="10" x="281.2325999101931" y="-208.46948141349242"/>
<rect fill="" height="10" width="10" x="475" y="-39.63974300137678"/>
<rect fill="" height="10" width="10" x="138.7629097440503" y="-5.7801743919229"/>
<rect fill="" height="10" width="10" x="-2.1980242478670857" y="-243.1092244148692"/>
<rect fill="" height="10" width="10" x="325.20206555904804" y="-276.50068838916934"/>
<rect fill="" height="10" width="10" x="323.4777727885047" y="-39.79577787976136"/>
<rect fill="" height="10" width="10" x="472.8446340368208" y="-73.65534648921523"/>
<rect fill="" height="10" width="10" x="44.57341715312079" y="-242.64111977971547"/>
<rect fill="" height="10" width="10" x="381.6726537943422" y="-106.57870582836163"/>
<rect fill="" height="10" width="10" x="1.4660978895374948" y="-141.06241395135382"/>
<rect fill="" height="10" width="10" x="471.76695105523123" y="-39.79577787976136"/>
<rect fill="" height="10" width="10" x="278.861697350696" y="-107.35888022028453"/>
<rect fill="" height="10" width="10" x="47.375392905253705" y="-310.98439651216154"/>
<rect fill="" height="10" width="10" x="375.42209250112256" y="-242.32905002294632"/>
<rect fill="" height="10" width="10" x="275.62864840592727" y="-106.57870582836163"/>
<rect fill="" height="10" width="10" x="378.2240682532555" y="-5.7801743919229"/>
<rect fill="" height="10" width="10" x="187.68971710821734" y="-343.5956860945388"/>
<rect fill="" height="10" width="10" x="-5" y="-141.2184488297384"/>
<rect fill="" height="10" width="10" x="285.54333183655143" y="-141.2184488297384"/>
<rect fill="" height="10" width="10" x="323.90884598114053" y="-275.87654887563104"/>
<rect fill="" height="10" width="10" x="465.51638976201167" y="-5.7801743919229"/>
<rect fill="" height="10" width="10" x="420.4692411315671" y="-242.48508490133088"/>
<rect fill="" height="10" width="10" x="471.76695105523123" y="-275.87654887563104"/>
<rect fill="" height="10" width="10" x="323.90884598114053" y="-38.85956860945388"/>
<rect fill="" height="10" width="10" x="139.84059272563988" y="-310.36025699862324"/>
<rect fill="" height="10" width="10" x="-0.47373147732375376" y="-140.75034419458467"/>
<rect fill="" height="10" width="10" x="285.3277952402335" y="-345"/>
<rect fill="" height="10" width="10" x="92.42254153569824" y="-39.63974300137678"/>
<rect fill="" height="10" width="10" x="89.62056578356534" y="-6.248279027076641"/>
<rect fill="" height="10" width="10" x="87.896273013022" y="-276.0325837540156"/>
<rect fill="" height="10" width="10" x="143.9357880556803" y="-242.64111977971547"/>
<rect fill="" height="10" width="10" x="183.1634485855411" y="-107.35888022028453"/>
<rect fill="" height="10" width="10" x="87.896273013022" y="-107.35888022028453"/>
<rect fill="" height="10" width="10" x="-4.784463403682084" y="-310.98439651216154"/>
<rect fill="" height="10" width="10" x="371.97350696003593" y="-39.171638366223036"/>
<rect fill="" height="10" width="10" x="423.9178266726538" y="-276.0325837540156"/>
<rect fill="" height="10" width="10" x="51.470588235294116" y="-107.35888022028453"/>
<rect fill="" height="10" width="10" x="46.29770992366412" y="-310.828361633777"/>
<rect fill="" height="10" width="10" x="89.62056578356534" y="-343.75172097292335"/>
<rect fill="" height="10" width="10" x="468.3183655141446" y="-243.42129417163838"/>
<rect fill="" height="10" width="10" x="467.240682532555" y="-276.0325837540156"/>
<rect fill="" height="10" width="10" x="94.14683430624159" y="-276.50068838916934"/>
<rect fill="" height="10" width="10" x="285.75886843286935" y="-310.67232675539236"/>
<rect fill="" height="10" width="10" x="280.3704535249214" y="-5.31206975676916"/>
<rect fill="" height="10" width="10" x="334.0390660080826" y="-311.1404313905461"/>
<rect fill="" height="10" width="10" x="45.651100134710376" y="-39.95181275814594"/>
<rect fill="" height="10" width="10" x="321.7534800179614" y="-73.1872418540615"/>
<rect fill="" height="10" width="10" x="189.19847328244273" y="-141.06241395135382"/>
<rect fill="" height="10" width="10" x="417.0206555904805" y="-40.263882514915096"/>
<rect fill="" height="10" width="10" x="4.0525370453524925" y="-208.7815511702616"/>
<rect fill="" height="10" width="10" x="279.50830713964973" y="-140.75034419458467"/>
<rect fill="" height="10" width="10" x="91.34485855410867" y="-40.263882514915096"/>
<rect fill="" height="10" width="10" x="88.97395599461159" y="-345"/>
<rect fill="" height="10" width="10" x="147.59991019308487" y="-5.7801743919229"/>
<rect fill="" height="10" width="10" x="463.7920969914683" y="-277.12482790270764"/>
<rect fill="" height="10" width="10" x="375.42209250112256" y="-140.59430931620008"/>
<rect fill="" height="10" width="10" x="378.2240682532555" y="-309.7361174850849"/>
<rect fill="" height="10" width="10" x="1.6816344858554109" y="-343.5956860945388"/>
<rect fill="" height="10" width="10" x="424.1333632689717" y="-242.64111977971547"/>
<rect fill="" height="10" width="10" x="135.74539739559947" y="-243.42129417163838"/>
<rect fill="" height="10" width="10" x="-3.9223170184104177" y="-6.09224414869206"/>
<rect fill="" height="10" width="10" x="47.375392905253705" y="-309.8921523634695"/>
<rect fill="" height="10" width="10" x="469.3960484957342" y="-106.57870582836163"/>
<rect fill="" height="10" width="10" x="374.7754827121688" y="-208.31344653510786"/>
<rect fill="" height="10" width="10" x="417.4517287831163" y="-106.57870582836163"/>
<rect fill="" height="10" width="10" x="377.79299506061966" y="-208.7815511702616"/>
<rect fill="" height="10" width="10" x="183.1634485855411" y="-107.98301973382286"/>
<rect fill="" height="10" width="10" x="419.82263134261336" y="-40.263882514915096"/>
<rect fill="" height="10" width="10" x="420.68477772788503" y="-208.31344653510786"/>
<rect fill="" height="10" width="10" x="41.771441400987875" y="-107.98301973382286"/>
<rect fill="" height="10" width="10" x="194.37135159407273" y="-309.7361174850849"/>
<rect fill="" height="10" width="10" x="49.74629546475079" y="-343.9077558513079"/>
<rect fill="" height="10" width="10" x="373.6977997305793" y="-310.5162918770078"/>
<rect fill="" height="10" width="10" x="475" y="-208.31344653510786"/>
<rect fill="" height="10" width="10" x="277.5684777727885" y="-39.4837081229922"/>
<rect fill="" height="10" width="10" x="286.1899416255052" y="-343.75172097292335"/>
<rect fill="" height="10" width="10" x="285.3277952402335" y="-141.68655346489214"/>
<rect fill="" height="10" width="10" x="467.240682532555" y="-276.9687930243231"/>
<rect fill="" height="10" width="10" x="92.42254153569824" y="-6.404313905461221"/>
<rect fill="" height="10" width="10" x="418.7449483610238" y="-39.32767324460762"/>
<rect fill="" height="10" width="10" x="373.0511899416255" y="-344.84396512161544"/>
<rect fill="" height="10" width="10" x="282.31028289178266" y="-243.42129417163838"/>
<rect fill="" height="10" width="10" x="285.3277952402335" y="-106.73474070674621"/>
<rect fill="" height="10" width="10" x="141.5648854961832" y="-209.40569068379992"/>
<rect fill="" height="10" width="10" x="464.8697799730579" y="-140.43827443781552"/>
<rect fill="" height="10" width="10" x="278.4306241580602" y="-243.42129417163838"/>
<rect fill="" height="10" width="10" x="100.82846879209698" y="-208.15741165672327"/>
<rect fill="" height="10" width="10" x="375.42209250112256" y="-141.06241395135382"/>
<rect fill="" height="10" width="10" x="7.5011225864391555" y="-208.15741165672327"/>
<rect fill="" height="10" width="10" x="135.74539739559947" y="-208.93758604864618"/>
<rect fill="" height="10" width="10" x="376.0687022900763" y="-106.57870582836163"/>
<rect fill="" height="10" width="10" x="140.48720251459363" y="-141.374483708123"/>
<rect fill="" height="10" width="10" x="48.02200269420745" y="-6.09224414869206"/>
<rect fill="" height="10" width="10" x="472.413560844185" y="-5.93620927030748"/>
<rect fill="" height="10" width="10" x="41.12483161203413" y="-276.0325837540156"/>
<rect fill="" height="10" width="10" x="282.5258194881006" y="-106.57870582836163"/>
<rect fill="" height="10" width="10" x="368.52492141894925" y="-343.9077558513079"/>
<rect fill="" height="10" width="10" x="325.20206555904804" y="-276.6567232675539"/>
<rect fill="" height="10" width="10" x="136.39200718455322" y="-140.75034419458467"/>
<rect fill="" height="10" width="10" x="329.08172429277056" y="-242.01698026617714"/>
<rect fill="" height="10" width="10" x="378.0085316569376" y="-344.2198256080771"/>
<rect fill="" height="10" width="10" x="375.42209250112256" y="-310.36025699862324"/>
<rect fill="" height="10" width="10" x="-0.042658284687920656" y="-5.624139513538321"/>
<rect fill="" height="10" width="10" x="2.97485406376291" y="-310.67232675539236"/>
<rect fill="" height="10" width="10" x="274.9820386169735" y="-208.7815511702616"/>
<rect fill="" height="10" width="10" x="422.4090704984284" y="-141.84258834327673"/>
<rect fill="" height="10" width="10" x="45.651100134710376" y="-39.63974300137678"/>
<rect fill="" height="10" width="10" x="377.57745846430174" y="-208.7815511702616"/>
<rect fill="" height="10" width="10" x="463.1454872025146" y="-73.81138136759982"/>
<rect fill="" height="10" width="10" x="190.0606196677144" y="-242.32905002294632"/>
<rect fill="" height="10" width="10" x="47.375392905253705" y="-107.98301973382286"/>
<rect fill="" height="10" width="10" x="332.7458464301751" y="-243.1092244148692"/>
<rect fill="" height="10" width="10" x="97.59541984732824" y="-310.36025699862324"/>
<rect fill="" height="10" width="10" x="472.6290974405029" y="-344.2198256080771"/>
<rect fill="" height="10" width="10" x="48.02200269420745" y="-208.15741165672327"/>
<rect fill="" height="10" width="10" x="139.84059272563988" y="-107.6709499770537"/>
<rect fill="" height="10" width="10" x="42.20251459362371" y="-5.15603487838458"/>
<rect fill="" height="10" width="10" x="-2.1980242478670857" y="-310.5162918770078"/>
<rect fill="" height="10" width="10" x="48.02200269420745" y="-243.42129417163838"/>
<rect fill="" height="10" width="10" x="4.0525370453524925" y="-141.68655346489214"/>
<rect fill="" height="10" width="10" x="281.2325999101931" y="-72.71913721890776"/>
<rect fill="" height="10" width="10" x="276.70633138751685" y="-140.75034419458467"/>
<rect fill="" height="10" width="10" x="466.59407274360126" y="-6.404313905461221"/>
<rect fill="" height="10" width="10" x="468.96497530309836" y="-208.15741165672327"/>
<rect fill="" height="10" width="10" x="373.6977997305793" y="-242.01698026617714"/>
<rect fill="" height="10" width="10" x="46.29770992366412" y="-6.404313905461221"/>
<rect fill="" height="10" width="10" x="7.070049393803323" y="-277.28086278109225"/>
<rect fill="" height="10" width="10" x="369.3870678042209" y="-141.2184488297384"/>
<rect fill="" height="10" width="10" x="95.87112707678492" y="-309.7361174850849"/>
<rect fill="" height="10" width="10" x="44.57341715312079" y="-310.828361633777"/>
<rect fill="" height="10" width="10" x="98.45756623259992" y="-141.06241395135382"/>
<rect fill="" height="10" width="10" x="187.68971710821734" y="-343.9077558513079"/>
<rect fill="" height="10" width="10" x="88.32734620565783" y="-208.15741165672327"/>
<rect fill="" height="10" width="10" x="285.3277952402335" y="-107.6709499770537"/>
<rect fill="" height="10" width="10" x="183.81005837449484" y="-309.7361174850849"/>
<rect fill="" height="10" width="10" x="463.1454872025146" y="-39.63974300137678"/>
<rect fill="" height="10" width="10" x="284.034575662326" y="-310.36025699862324"/>
<rect fill="" height="10" width="10" x="427.36641221374043" y="-344.6879302432308"/>
<rect fill="" height="10" width="10" x="283.60350246969017" y="-107.20284534189996"/>
<rect fill="" height="10" width="10" x="145.2290076335878" y="-208.93758604864618"/>
<rect fill="" height="10" width="10" x="373.0511899416255" y="-243.1092244148692"/>
<rect fill="" height="10" width="10" x="373.6977997305793" y="-5.624139513538321"/>
<rect fill="" height="10" width="10" x="281.8792096991468" y="-107.51491509866912"/>
<rect fill="" height="10" width="10" x="279.50830713964973" y="-141.2184488297384"/>
<rect fill="" height="10" width="10" x="147.59991019308487" y="-310.67232675539236"/>
<rect fill="" height="10" width="10" x="327.57296811854513" y="-5.93620927030748"/>
<rect fill="" height="10" width="10" x="282.7413560844185" y="-107.20284534189996"/>
<rect fill="" height="10" width="10" x="328.00404131118097" y="-39.015603487838455"/>
<rect fill="" height="10" width="10" x="322.18455321059724" y="-311.1404313905461"/>
<rect fill="" height="10" width="10" x="374.55994611585095" y="-243.2652592932538"/>
<rect fill="" height="10" width="10" x="326.9263583295914" y="-276.8127581459385"/>
<rect fill="" height="10" width="10" x="182.51683879658734" y="-141.374483708123"/>
<rect fill="" height="10" width="10" x="276.70633138751685" y="-73.1872418540615"/>
<rect fill="" height="10" width="10" x="190.0606196677144" y="-107.04681046351537"/>
<rect fill="" height="10" width="10" x="467.240682532555" y="-242.79715465810006"/>
<rect fill="" height="10" width="10" x="419.1760215536596" y="-309.7361174850849"/>
<rect fill="" height="10" width="10" x="425.64211944319715" y="-343.75172097292335"/>
<rect fill="" height="10" width="10" x="327.57296811854513" y="-276.8127581459385"/>
<rect fill="" height="10" width="10" x="89.83610237988326" y="-275.87654887563104"/>
<rect fill="" height="10" width="10" x="370.2492141894926" y="-73.65534648921523"/>
<rect fill="" height="10" width="10" x="98.242029636282" y="-107.35888022028453"/>
<rect fill="" height="10" width="10" x="326.9263583295914" y="-40.263882514915096"/>
<rect fill="" height="10" width="10" x="381.45711719802426" y="-39.015603487838455"/>
<rect fill="" height="10" width="10" x="52.33273462056578" y="-344.84396512161544"/>
<rect fill="" height="10" width="10" x="50.82397844634037" y="-140.59430931620008"/>
<rect fill="" height="10" width="10" x="420.4692411315671" y="-141.2184488297384"/>
<rect fill="" height="10" width="10" x="48.45307588684329" y="-107.20284534189996"/>
<rect fill="" height="10" width="10" x="92.42254153569824" y="-6.248279027076641"/>
<rect fill="" height="10" width="10" x="95.22451728783116" y="-74.12345112436897"/>
<rect fill="" height="10" width="10" x="50.82397844634037" y="-276.3446535107848"/>
<rect fill="" height="10" width="10" x="422.19353390211046" y="-140.90637907296926"/>
<rect fill="" height="10" width="10" x="187.68971710821734" y="-39.32767324460762"/>
<rect fill="" height="10" width="10" x="188.551863493489" y="-107.98301973382286"/>
<rect fill="" height="10" width="10" x="322.18455321059724" y="-275.87654887563104"/>
<rect fill="" height="10" width="10" x="98.242029636282" y="-5.624139513538321"/>
<rect fill="" height="10" width="10" x="92.20700493938033" y="-242.79715465810006"/>
<rect fill="" height="10" width="10" x="187.68971710821734" y="-242.01698026617714"/>
<rect fill="" height="10" width="10" x="53.41041760215536" y="-277.28086278109225"/>
<rect fill="" height="10" width="10" x="327.1418949259093" y="-242.17301514456173"/>
<rect fill="" height="10" width="10" x="134.66771441400988" y="-141.374483708123"/>
<rect fill="" height="10" width="10" x="471.76695105523123" y="-209.40569068379992"/>
<rect fill="" height="10" width="10" x="286.4054782218231" y="-208.15741165672327"/>
<rect fill="" height="10" width="10" x="191.78491243825775" y="-276.8127581459385"/>
<rect fill="" height="10" width="10" x="326.2797485406376" y="-73.34327673244607"/>
<rect fill="" height="10" width="10" x="191.78491243825775" y="-276.9687930243231"/>
<rect fill="" height="10" width="10" x="90.05163897620116" y="-39.4837081229922"/>
<rect fill="" height="10" width="10" x="141.5648854961832" y="-276.6567232675539"/>
<rect fill="" height="10" width="10" x="0.17287831162999545" y="-141.2184488297384"/>
<rect fill="" height="10" width="10" x="321.9690166142793" y="-209.56172556218448"/>
<rect fill="" height="10" width="10" x="143.28917826672654" y="-310.98439651216154"/>
<rect fill="" height="10" width="10" x="194.37135159407273" y="-343.9077558513079"/>
<rect fill="" height="10" width="10" x="145.01347103726988" y="-140.90637907296926"/>
<rect fill="" height="10" width="10" x="42.84912438257746" y="-39.79577787976136"/>
<rect fill="" height="10" width="10" x="287.91423439604847" y="-107.51491509866912"/>
<rect fill="" height="10" width="10" x="278.4306241580602" y="-107.82698485543827"/>
<rect fill="" height="10" width="10" x="189.41400987876065" y="-107.98301973382286"/>
<rect fill="" height="10" width="10" x="373.6977997305793" y="-107.04681046351537"/>
<rect fill="" height="10" width="10" x="372.6201167489897" y="-72.71913721890776"/>
<rect fill="" height="10" width="10" x="280.5859901212393" y="-107.04681046351537"/>
<rect fill="" height="10" width="10" x="134.66771441400988" y="-73.34327673244607"/>
<rect fill="" height="10" width="10" x="194.15581499775482" y="-140.43827443781552"/>
<rect fill="" height="10" width="10" x="463.7920969914683" y="-141.53051858650758"/>
<rect fill="" height="10" width="10" x="96.51773686573866" y="-209.24965580541533"/>
<rect fill="" height="10" width="10" x="191.138302649304" y="-309.8921523634695"/>
<rect fill="" height="10" width="10" x="146.7377638078132" y="-277.12482790270764"/>
<rect fill="" height="10" width="10" x="418.9604849573417" y="-106.73474070674621"/>
<rect fill="" height="10" width="10" x="280.1549169286035" y="-107.51491509866912"/>
<rect fill="" height="10" width="10" x="52.33273462056578" y="-242.17301514456173"/>
<rect fill="" height="10" width="10" x="420.68477772788503" y="-276.0325837540156"/>
<rect fill="" height="10" width="10" x="475" y="-140.75034419458467"/>
<rect fill="" height="10" width="10" x="462.92995060619666" y="-310.5162918770078"/>
<rect fill="" height="10" width="10" x="467.240682532555" y="-6.248279027076641"/>
<rect fill="" height="10" width="10" x="93.069151324652" y="-309.7361174850849"/>
<rect fill="" height="10" width="10" x="276.9218679838348" y="-106.57870582836163"/>
<rect fill="" height="10" width="10" x="4.914683430624159" y="-5.624139513538321"/>
<rect fill="" height="10" width="10" x="330.37494387067807" y="-242.01698026617714"/>
<rect fill="" height="10" width="10" x="44.788953749438704" y="-208.93758604864618"/>
<rect fill="" height="10" width="10" x="-2.1980242478670857" y="-242.95318953648462"/>
<rect fill="" height="10" width="10" x="467.67175572519085" y="-39.4837081229922"/>
<rect fill="" height="10" width="10" x="468.3183655141446" y="-141.53051858650758"/>
<rect fill="" height="10" width="10" x="53.19488100583745" y="-243.1092244148692"/>
<rect fill="" height="10" width="10" x="474.56892680736416" y="-345"/>
<rect fill="" height="10" width="10" x="423.9178266726538" y="-73.65534648921523"/>
<rect fill="" height="10" width="10" x="90.26717557251908" y="-344.2198256080771"/>
<rect fill="" height="10" width="10" x="100.82846879209698" y="-242.48508490133088"/>
<rect fill="" height="10" width="10" x="369.60260440053884" y="-107.35888022028453"/>
<rect fill="" height="10" width="10" x="369.60260440053884" y="-311.1404313905461"/>
<rect fill="" height="10" width="10" x="-3.4912438257745846" y="-141.06241395135382"/>
<rect fill="" height="10" width="10" x="143.28917826672654" y="-39.4837081229922"/>
<rect fill="" height="10" width="10" x="100.82846879209698" y="-243.2652592932538"/>
<rect fill="" height="10" width="10" x="417.0206555904805" y="-6.248279027076641"/>
<rect fill="" height="10" width="10" x="284.68118545127976" y="-310.36025699862324"/>
<rect fill="" height="10" width="10" x="138.11629995509654" y="-344.84396512161544"/>
<rect fill="" height="10" width="10" x="140.91827570722947" y="-208.93758604864618"/>
<rect fill="" height="10" width="10" x="370.2492141894926" y="-5.624139513538321"/>
<rect fill="" height="10" width="10" x="98.242029636282" y="-140.43827443781552"/>
<rect fill="" height="10" width="10" x="54.057027391109116" y="-73.34327673244607"/>
<rect fill="" height="10" width="10" x="424.1333632689717" y="-141.06241395135382"/>
<rect fill="" height="10" width="10" x="-1.7669510552312526" y="-343.5956860945388"/>
<rect fill="" height="10" width="10" x="284.46564885496184" y="-310.36025699862324"/>
<rect fill="" height="10" width="10" x="4.699146834306241" y="-39.4837081229922"/>
<rect fill="" height="10" width="10" x="462.067804220925" y="-310.828361633777"/>
<rect fill="" height="10" width="10" x="51.470588235294116" y="-209.56172556218448"/>
<rect fill="" height="10" width="10" x="95.655590480467" y="-74.12345112436897"/>
<rect fill="" height="10" width="10" x="140.91827570722947" y="-141.2184488297384"/>
<rect fill="" height="10" width="10" x="41.12483161203413" y="-5.93620927030748"/>
<rect fill="" height="10" width="10" x="326.2797485406376" y="-141.53051858650758"/>
<rect fill="" height="10" width="10" x="93.93129770992367" y="-243.1092244148692"/>
<rect fill="" height="10" width="10" x="422.4090704984284" y="-276.50068838916934"/>
<rect fill="" height="10" width="10" x="278.861697350696" y="-310.5162918770078"/>
<rect fill="" height="10" width="10" x="379.94836102379884" y="-107.98301973382286"/>
<rect fill="" height="10" width="10" x="416.37404580152673" y="-209.09362092703074"/>
<rect fill="" height="10" width="10" x="463.7920969914683" y="-73.1872418540615"/>
<rect fill="" height="10" width="10" x="422.19353390211046" y="-107.98301973382286"/>
<rect fill="" height="10" width="10" x="471.76695105523123" y="-73.81138136759982"/>
<rect fill="" height="10" width="10" x="7.5011225864391555" y="-343.5956860945388"/>
<rect fill="" height="10" width="10" x="334.47013920071845" y="-6.404313905461221"/>
<rect fill="" height="10" width="10" x="90.482712168837" y="-38.85956860945388"/>
<rect fill="" height="10" width="10" x="96.51773686573866" y="-276.3446535107848"/>
<rect fill="" height="10" width="10" x="7.285585990121239" y="-107.82698485543827"/>
<rect fill="" height="10" width="10" x="191.138302649304" y="-277.28086278109225"/>
<rect fill="" height="10" width="10" x="141.7804220925011" y="-141.06241395135382"/>
<rect fill="" height="10" width="10" x="326.9263583295914" y="-209.09362092703074"/>
<rect fill="" height="10" width="10" x="287.91423439604847" y="-310.828361633777"/>
<rect fill="" height="10" width="10" x="282.7413560844185" y="-5"/>
<rect fill="" height="10" width="10" x="375.42209250112256" y="-343.75172097292335"/>
<rect fill="" height="10" width="10" x="275.8441850022452" y="-107.82698485543827"/>
<rect fill="" height="10" width="10" x="371.3268971710822" y="-140.43827443781552"/>
<rect fill="" height="10" width="10" x="181.65469241131566" y="-242.01698026617714"/>
<rect fill="" height="10" width="10" x="137.25415356982487" y="-208.7815511702616"/>
<rect fill="" height="10" width="10" x="284.2501122586439" y="-208.7815511702616"/>
<rect fill="" height="10" width="10" x="375.42209250112256" y="-5.7801743919229"/>
<rect fill="" height="10" width="10" x="54.057027391109116" y="-5.31206975676916"/>
<rect fill="" height="10" width="10" x="138.11629995509654" y="-343.9077558513079"/>
<rect fill="" height="10" width="10" x="332.7458464301751" y="-243.1092244148692"/>
<rect fill="" height="10" width="10" x="183.1634485855411" y="-344.3758604864617"/>
<rect fill="" height="10" width="10" x="280.1549169286035" y="-344.84396512161544"/>
<rect fill="" height="10" width="10" x="472.8446340368208" y="-208.625516291877"/>
<rect fill="" height="10" width="10" x="45.22002694207454" y="-276.6567232675539"/>
<rect fill="" height="10" width="10" x="50.82397844634037" y="-5.468104635153741"/>
<rect fill="" height="10" width="10" x="469.82712168837" y="-275.87654887563104"/>
<rect fill="" height="10" width="10" x="92.42254153569824" y="-344.53189536484626"/>
<rect fill="" height="10" width="10" x="276.0597215985631" y="-6.248279027076641"/>
<rect fill="" height="10" width="10" x="41.55590480466996" y="-106.57870582836163"/>
<rect fill="" height="10" width="10" x="185.10327795240232" y="-72.87517209729234"/>
<rect fill="" height="10" width="10" x="52.11719802424787" y="-106.8907755851308"/>
<rect fill="" height="10" width="10" x="285.75886843286935" y="-209.09362092703074"/>
<rect fill="" height="10" width="10" x="374.7754827121688" y="-345"/>
<rect fill="" height="10" width="10" x="282.7413560844185" y="-72.71913721890776"/>
<rect fill="" height="10" width="10" x="321.7534800179614" y="-310.5162918770078"/>
<rect fill="" height="10" width="10" x="462.067804220925" y="-141.374483708123"/>
<rect fill="" height="10" width="10" x="426.2887292321509" y="-73.81138136759982"/>
<rect fill="" height="10" width="10" x="51.470588235294116" y="-209.09362092703074"/>
<rect fill="" height="10" width="10" x="373.6977997305793" y="-140.90637907296926"/>
<rect fill="" height="10" width="10" x="369.60260440053884" y="-106.73474070674621"/>
<rect fill="" height="10" width="10" x="49.09968567579703" y="-6.404313905461221"/>
<rect fill="" height="10" width="10" x="471.76695105523123" y="-107.82698485543827"/>
<rect fill="" height="10" width="10" x="423.9178266726538" y="-6.404313905461221"/>
<rect fill="" height="10" width="10" x="330.37494387067807" y="-242.79715465810006"/>
<rect fill="" height="10" width="10" x="51.470588235294116" y="-106.73474070674621"/>
<rect fill="" height="10" width="10" x="371.97350696003593" y="-242.64111977971547"/>
<rect fill="" height="10" width="10" x="381.45711719802426" y="-310.5162918770078"/>
<rect fill="" height="10" width="10" x="287.91423439604847" y="-73.1872418540615"/>
<rect fill="" height="10" width="10" x="100.82846879209698" y="-106.73474070674621"/>
<rect fill="" height="10" width="10" x="90.05163897620116" y="-107.20284534189996"/>
<rect fill="" height="10" width="10" x="330.37494387067807" y="-310.5162918770078"/>
<rect fill="" height="10" width="10" x="90.482712168837" y="-5.624139513538321"/>
<rect fill="" height="10" width="10" x="328.00404131118097" y="-140.90637907296926"/>
<rect fill="" height="10" width="10" x="137.03861697350695" y="-107.20284534189996"/>
</g>
</g>
<g>
<g>
<line stroke="black" stroke-width="1" x1="26.079928154467893" x2="26.079928154467893" y1="0" y2="10"/>
<line stroke="black" stroke-width="1" x1="112.29456668163449" x2="112.29456668163449" y1="0" y2="10"/>
<line stroke="black" stroke-width="1" x1="198.5092052088011" x2="198.5092052088011" y1="0" y2="10"/>
<line stroke="black" stroke-width="1" x1="284.72384373596765" x2="284.72384373596765" y1="0" y2="10"/>
<line stroke="black" stroke-width="1" x1="370.93848226313423" x2="370.93848226313423" y1="0" y2="10"/>
<line stroke="black" stroke-width="1" x1="457.1531207903009" x2="457.1531207903009" y1="0" y2="10"/>
</g>
<line stroke="black" stroke-width="1" x1="0" x2="480" y1="0" y2="0"/>
<g>
<text font-size="12" text-anchor="middle" x="26.079928154467893" y="20">
-800
</text>
<text font-size="12" text-anchor="middle" x="112.29456668163449" y="20">
-400
</text>
<text font-size="12" text-anchor="middle" x="198.5092052088011" y="20">
0
</text>
<text font-size="12" text-anchor="middle" x="284.72384373596765" y="20">
400
</text>
<text font-size="12" text-anchor="middle" x="370.93848226313423" y="20">
800
</text>
<text font-size="12" text-anchor="middle" x="457.1531207903009" y="20">
1200
</text>
</g>
<text font-size="12" text-anchor="middle" x="240" y="30">

</text>
</g>
<g>
<g>
<line stroke="black" stroke-width="1" x1="0" x2="-10" y1="-18.41211564938045" y2="-18.41211564938045"/>
<line stroke="black" stroke-width="1" x1="0" x2="-10" y1="-80.82606700321249" y2="-80.82606700321249"/>
<line stroke="black" stroke-width="1" x1="0" x2="-10" y1="-143.2400183570445" y2="-143.2400183570445"/>
<line stroke="black" stroke-width="1" x1="0" x2="-10" y1="-205.65396971087654" y2="-205.65396971087654"/>
<line stroke="black" stroke-width="1" x1="0" x2="-10" y1="-268.06792106470857" y2="-268.06792106470857"/>
<line stroke="black" stroke-width="1" x1="0" x2="-10" y1="-330.4818724185406" y2="-330.4818724185406"/>
</g>
<line stroke="black" stroke-width="1" x1="0" x2="0" y1="0" y2="-340"/>
<g>
<text dominant-baseline="middle" font-size="12" text-anchor="end" x="-15" y="-18.41211564938045">
-800
</text>
<text dominant-baseline="middle" font-size="12" text-anchor="end" x="-15" y="-80.82606700321249">
-400
</text>
<text dominant-baseline="middle" font-size="12" text-anchor="end" x="-15" y="-143.2400183570445">
0
</text>
<text dominant-baseline="middle" font-size="12" text-anchor="end" x="-15" y="-205.65396971087654">
400
</text>
<text dominant-baseline="middle" font-size="12" text-anchor="end" x="-15" y="-268.06792106470857">
800
</text>
<text dominant-baseline="middle" font-size="12" text-anchor="end" x="-15" y="-330.4818724185406">
1200
</text>
</g>
<text font-size="12" text-anchor="middle" transform="rotate(-90 -48 -170)" x="-48" y="-182">

</text>
</g>
</g>
</svg>