<svg viewBox="0 0 600 400" xmlns="http://www.w3.org/2000/svg">
<g transform="translate(72, 364)">
<g>
<g>
<rect fill="" height="10" width="10" x="378.2309746328438" y="-208.31969076853116"/>
<rect fill="" height="10" width="10" x="138.1241655540721" y="-344.0723055934516"/>
<rect fill="" height="10" width="10" x="41.141522029372496" y="-310.98453842655755"/>
<rect fill="" height="10" width="10" x="93.26435246995995" y="-5.309231468849477"/>
<rect fill="" height="10" width="10" x="50.54072096128171" y="-344.2269213278763"/>
<rect fill="" height="10" width="10" x="95.40053404539385" y="-276.5052296498408"/>
<rect fill="" height="10" width="10" x="1.1949265687583441" y="-107.81946339245111"/>
<rect fill="" height="10" width="10" x="92.19626168224299" y="-343.7630741246021"/>
<rect fill="" height="10" width="10" x="1.1949265687583441" y="-39.63392451114143"/>
<rect fill="" height="10" width="10" x="423.94526034712953" y="-276.0413824465666"/>
<rect fill="" height="10" width="10" x="-5" y="-5.773078672123693"/>
<rect fill="" height="10" width="10" x="283.8117489986649" y="-276.5052296498408"/>
<rect fill="" height="10" width="10" x="333.15754339118826" y="-311.1391541609823"/>
<rect fill="" height="10" width="10" x="139.83311081441923" y="-39.17007730786721"/>
<rect fill="" height="10" width="10" x="468.37783711615486" y="-73.6493860845839"/>
<rect fill="" height="10" width="10" x="138.55140186915887" y="-39.63392451114143"/>
<rect fill="" height="10" width="10" x="464.7463284379172" y="-242.02592087312414"/>
<rect fill="" height="10" width="10" x="373.7449933244326" y="-140.44338335607094"/>
<rect fill="" height="10" width="10" x="463.0373831775701" y="-5"/>
<rect fill="" height="10" width="10" x="421.5954606141522" y="-5.618462937698954"/>
<rect fill="" height="10" width="10" x="326.9626168224299" y="-311.1391541609823"/>
<rect fill="" height="10" width="10" x="326.9626168224299" y="-276.5052296498408"/>
<rect fill="" height="10" width="10" x="464.7463284379172" y="-72.72169167803547"/>
<rect fill="" height="10" width="10" x="52.46328437917223" y="-72.72169167803547"/>
<rect fill="" height="10" width="10" x="326.3217623497997" y="-140.90723055934515"/>
<rect fill="" height="10" width="10" x="328.67156208277703" y="-72.72169167803547"/>
<rect fill="" height="10" width="10" x="329.3124165554072" y="-345"/>
<rect fill="" height="10" width="10" x="93.69158878504673" y="-310.52069122328334"/>
<rect fill="" height="10" width="10" x="420.95460614152205" y="-39.47930877671669"/>
<rect fill="" height="10" width="10" x="423.94526034712953" y="-107.04638472032742"/>
<rect fill="" height="10" width="10" x="98.17757009345794" y="-344.84538426557526"/>
<rect fill="" height="10" width="10" x="380.7943925233645" y="-6.391541609822647"/>
<rect fill="" height="10" width="10" x="381.43524699599465" y="-6.236925875397908"/>
<rect fill="" height="10" width="10" x="145.173564753004" y="-276.65984538426557"/>
<rect fill="" height="10" width="10" x="-5" y="-141.83492496589358"/>
<rect fill="" height="10" width="10" x="136.62883845126836" y="-39.47930877671669"/>
<rect fill="" height="10" width="10" x="332.0894526034713" y="-344.38153706230105"/>
<rect fill="" height="10" width="10" x="425.6542056074766" y="-5.309231468849477"/>
<rect fill="" height="10" width="10" x="52.46328437917223" y="-141.83492496589358"/>
<rect fill="" height="10" width="10" x="141.75567423230976" y="-309.7476125511596"/>
<rect fill="" height="10" width="10" x="282.9572763684913" y="-208.16507503410642"/>
<rect fill="" height="10" width="10" x="324.6128170894526" y="-38.860845839017735"/>
<rect fill="" height="10" width="10" x="-2.0093457943925235" y="-39.63392451114143"/>
<rect fill="" height="10" width="10" x="184.90654205607476" y="-40.25238744884038"/>
<rect fill="" height="10" width="10" x="44.55941255006675" y="-310.6753069577081"/>
<rect fill="" height="10" width="10" x="89.6328437917223" y="-242.02592087312414"/>
<rect fill="" height="10" width="10" x="134.70627503337784" y="-208.62892223738064"/>
<rect fill="" height="10" width="10" x="278.4712950600801" y="-209.09276944065485"/>
<rect fill="" height="10" width="10" x="2.2630173564753004" y="-38.860845839017735"/>
<rect fill="" height="10" width="10" x="-1.5821094793057409" y="-73.49477035015916"/>
<rect fill="" height="10" width="10" x="466.6688918558078" y="-73.95861755343338"/>
<rect fill="" height="10" width="10" x="-1.1548731642189587" y="-5.309231468849477"/>
<rect fill="" height="10" width="10" x="465.6008010680908" y="-310.8299226921328"/>
<rect fill="" height="10" width="10" x="284.66622162883846" y="-39.17007730786721"/>
<rect fill="" height="10" width="10" x="140.90120160213618" y="-140.90723055934515"/>
<rect fill="" height="10" width="10" x="285.3070761014686" y="-276.5052296498408"/>
<rect fill="" height="10" width="10" x="415.61415220293725" y="-277.2783083219645"/>
<rect fill="" height="10" width="10" x="468.37783711615486" y="-242.3351523419736"/>
<rect fill="" height="10" width="10" x="425.01335113484646" y="-140.7526148249204"/>
<rect fill="" height="10" width="10" x="472.43658210947933" y="-107.97407912687585"/>
<rect fill="" height="10" width="10" x="281.2483311081442" y="-208.4743065029559"/>
<rect fill="" height="10" width="10" x="475" y="-39.63392451114143"/>
<rect fill="" height="10" width="10" x="138.76502002670227" y="-5.773078672123693"/>
<rect fill="" height="10" width="10" x="-2.2229639519359146" y="-243.10823101409733"/>
<rect fill="" height="10" width="10" x="325.2536715620828" y="-276.5052296498408"/>
<rect fill="" height="10" width="10" x="323.54472630173564" y="-39.78854024556617"/>
<rect fill="" height="10" width="10" x="472.8638184245661" y="-73.6493860845839"/>
<rect fill="" height="10" width="10" x="44.55941255006675" y="-242.64438381082311"/>
<rect fill="" height="10" width="10" x="381.64886515353805" y="-106.58253751705321"/>
<rect fill="" height="10" width="10" x="1.4085447263017352" y="-141.0618462937699"/>
<rect fill="" height="10" width="10" x="471.7957276368491" y="-39.78854024556617"/>
<rect fill="" height="10" width="10" x="278.8985313751669" y="-107.3556161891769"/>
<rect fill="" height="10" width="10" x="47.33644859813084" y="-310.98453842655755"/>
<rect fill="" height="10" width="10" x="375.4539385847797" y="-242.3351523419736"/>
<rect fill="" height="10" width="10" x="275.694259012016" y="-106.58253751705321"/>
<rect fill="" height="10" width="10" x="378.2309746328438" y="-5.773078672123693"/>
<rect fill="" height="10" width="10" x="187.68357810413886" y="-343.60845839017736"/>
<rect fill="" height="10" width="10" x="-5" y="-141.21646202819463"/>
<rect fill="" height="10" width="10" x="285.52069425901203" y="-141.21646202819463"/>
<rect fill="" height="10" width="10" x="323.97196261682245" y="-275.8867667121419"/>
<rect fill="" height="10" width="10" x="465.6008010680908" y="-5.773078672123693"/>
<rect fill="" height="10" width="10" x="420.52736982643523" y="-242.48976807639835"/>
<rect fill="" height="10" width="10" x="471.7957276368491" y="-275.8867667121419"/>
<rect fill="" height="10" width="10" x="323.97196261682245" y="-38.860845839017735"/>
<rect fill="" height="10" width="10" x="139.83311081441923" y="-310.3660754888586"/>
<rect fill="" height="10" width="10" x="-0.5140186915887854" y="-140.7526148249204"/>
<rect fill="" height="10" width="10" x="285.3070761014686" y="-345"/>
<rect fill="" height="10" width="10" x="92.40987983978638" y="-39.63392451114143"/>
<rect fill="" height="10" width="10" x="89.6328437917223" y="-6.236925875397908"/>
<rect fill="" height="10" width="10" x="87.92389853137517" y="-276.0413824465666"/>
<rect fill="" height="10" width="10" x="143.89185580774367" y="-242.64438381082311"/>
<rect fill="" height="10" width="10" x="183.19759679572763" y="-107.3556161891769"/>
<rect fill="" height="10" width="10" x="87.92389853137517" y="-107.3556161891769"/>
<rect fill="" height="10" width="10" x="-4.786381842456609" y="-310.98453842655755"/>
<rect fill="" height="10" width="10" x="372.03604806408543" y="-39.17007730786721"/>
<rect fill="" height="10" width="10" x="423.94526034712953" y="-276.0413824465666"/>
<rect fill="" height="10" width="10" x="51.395193591455275" y="-107.3556161891769"/>
<rect fill="" height="10" width="10" x="46.26835781041388" y="-310.8299226921328"/>
<rect fill="" height="10" width="10" x="89.6328437917223" y="-343.7630741246021"/>
<rect fill="" height="10" width="10" x="468.37783711615486" y="-243.4174624829468"/>
<rect fill="" height="10" width="10" x="467.30974632843794" y="-276.0413824465666"/>
<rect fill="" height="10" width="10" x="94.1188251001335" y="-276.5052296498408"/>
<rect fill="" height="10" width="10" x="285.7343124165554" y="-310.6753069577081"/>
<rect fill="" height="10" width="10" x="280.39385847797064" y="-5.309231468849477"/>
<rect fill="" height="10" width="10" x="334.01201602136183" y="-311.1391541609823"/>
<rect fill="" height="10" width="10" x="45.627503337783715" y="-39.943155979990905"/>
<rect fill="" height="10" width="10" x="321.83578104138854" y="-73.18553888130968"/>
<rect fill="" height="10" width="10" x="189.1789052069426" y="-141.0618462937699"/>
<rect fill="" height="10" width="10" x="417.109479305741" y="-40.25238744884038"/>
<rect fill="" height="10" width="10" x="3.971962616822429" y="-208.78353797180537"/>
<rect fill="" height="10" width="10" x="279.53938584779706" y="-140.7526148249204"/>
<rect fill="" height="10" width="10" x="91.34178905206943" y="-40.25238744884038"/>
<rect fill="" height="10" width="10" x="88.99198931909213" y="-345"/>
<rect fill="" height="10" width="10" x="147.52336448598132" y="-5.773078672123693"/>
<rect fill="" height="10" width="10" x="463.89185580774364" y="-277.1236925875398"/>
<rect fill="" height="10" width="10" x="375.4539385847797" y="-140.59799909049568"/>
<rect fill="" height="10" width="10" x="378.2309746328438" y="-309.7476125511596"/>
<rect fill="" height="10" width="10" x="1.6221628838451272" y="-343.60845839017736"/>
<rect fill="" height="10" width="10" x="424.1588785046729" y="-242.64438381082311"/>
<rect fill="" height="10" width="10" x="135.7743658210948" y="-243.4174624829468"/>
<rect fill="" height="10" width="10" x="-3.931909212283044" y="-6.08231014097317"/>
<rect fill="" height="10" width="10" x="47.33644859813084" y="-309.90222828558433"/>
<rect fill="" height="10" width="10" x="469.44592790387185" y="-106.58253751705321"/>
<rect fill="" height="10" width="10" x="374.8130841121495" y="-208.31969076853116"/>
<rect fill="" height="10" width="10" x="417.53671562082775" y="-106.58253751705321"/>
<rect fill="" height="10" width="10" x="377.803738317757" y="-208.78353797180537"/>
<rect fill="" height="10" width="10" x="183.19759679572763" y="-107.97407912687585"/>
<rect fill="" height="10" width="10" x="419.88651535380507" y="-40.25238744884038"/>
<rect fill="" height="10" width="10" x="420.74098798397864" y="-208.31969076853116"/>
<rect fill="" height="10" width="10" x="41.78237650200267" y="-107.97407912687585"/>
<rect fill="" height="10" width="10" x="194.30574098798397" y="-309.7476125511596"/>
<rect fill="" height="10" width="10" x="49.686248331108146" y="-343.91768985902684"/>
<rect fill="" height="10" width="10" x="373.7449933244326" y="-310.52069122328334"/>
<rect fill="" height="10" width="10" x="475" y="-208.31969076853116"/>
<rect fill="" height="10" width="10" x="277.61682242990656" y="-39.47930877671669"/>
<rect fill="" height="10" width="10" x="286.1615487316422" y="-343.7630741246021"/>
<rect fill="" height="10" width="10" x="285.3070761014686" y="-141.68030923146884"/>
<rect fill="" height="10" width="10" x="467.30974632843794" y="-276.96907685311504"/>
<rect fill="" height="10" width="10" x="92.40987983978638" y="-6.391541609822647"/>
<rect fill="" height="10" width="10" x="418.81842456608814" y="-39.32469304229195"/>
<rect fill="" height="10" width="10" x="373.1041388518024" y="-344.84538426557526"/>
<rect fill="" height="10" width="10" x="282.31642189586114" y="-243.4174624829468"/>
<rect fill="" height="10" width="10" x="285.3070761014686" y="-106.73715325147795"/>
<rect fill="" height="10" width="10" x="141.54205607476635" y="-209.40200090950432"/>
<rect fill="" height="10" width="10" x="464.9599465954606" y="-140.44338335607094"/>
<rect fill="" height="10" width="10" x="278.4712950600801" y="-243.4174624829468"/>
<rect fill="" height="10" width="10" x="100.74098798397864" y="-208.16507503410642"/>
<rect fill="" height="10" width="10" x="375.4539385847797" y="-141.0618462937699"/>
<rect fill="" height="10" width="10" x="7.389853137516688" y="-208.16507503410642"/>
<rect fill="" height="10" width="10" x="135.7743658210948" y="-208.9381537062301"/>
<rect fill="" height="10" width="10" x="376.0947930574099" y="-106.58253751705321"/>
<rect fill="" height="10" width="10" x="140.4739652870494" y="-141.37107776261936"/>
<rect fill="" height="10" width="10" x="47.97730307076102" y="-6.08231014097317"/>
<rect fill="" height="10" width="10" x="472.43658210947933" y="-5.927694406548431"/>
<rect fill="" height="10" width="10" x="41.141522029372496" y="-276.0413824465666"/>
<rect fill="" height="10" width="10" x="282.53004005340455" y="-106.58253751705321"/>
<rect fill="" height="10" width="10" x="368.6181575433912" y="-343.91768985902684"/>
<rect fill="" height="10" width="10" x="325.2536715620828" y="-276.65984538426557"/>
<rect fill="" height="10" width="10" x="136.41522029372496" y="-140.7526148249204"/>
<rect fill="" height="10" width="10" x="329.09879839786385" y="-242.02592087312414"/>
<rect fill="" height="10" width="10" x="378.0173564753004" y="-344.2269213278763"/>
<rect fill="" height="10" width="10" x="375.4539385847797" y="-310.3660754888586"/>
<rect fill="" height="10" width="10" x="-0.08678237650200238" y="-5.618462937698954"/>
<rect fill="" height="10" width="10" x="2.9038718291054737" y="-310.6753069577081"/>
<rect fill="" height="10" width="10" x="275.05340453938584" y="-208.78353797180537"/>
<rect fill="" height="10" width="10" x="422.4499332443258" y="-141.83492496589358"/>
<rect fill="" height="10" width="10" x="45.627503337783715" y="-39.63392451114143"/>
<rect fill="" height="10" width="10" x="377.59012016021364" y="-208.78353797180537"/>
<rect fill="" height="10" width="10" x="463.2510013351135" y="-73.80400181900865"/>
<rect fill="" height="10" width="10" x="190.03337783711615" y="-242.3351523419736"/>
<rect fill="" height="10" width="10" x="47.33644859813084" y="-107.97407912687585"/>
<rect fill="" height="10" width="10" x="332.7303070761015" y="-243.10823101409733"/>
<rect fill="" height="10" width="10" x="97.53671562082776" y="-310.3660754888586"/>
<rect fill="" height="10" width="10" x="472.6502002670227" y="-344.2269213278763"/>
<rect fill="" height="10" width="10" x="47.97730307076102" y="-208.16507503410642"/>
<rect fill="" height="10" width="10" x="139.83311081441923" y="-107.66484765802637"/>
<rect fill="" height="10" width="10" x="42.20961281708945" y="-5.1546157344247385"/>
<rect fill="" height="10" width="10" x="-2.2229639519359146" y="-310.52069122328334"/>
<rect fill="" height="10" width="10" x="47.97730307076102" y="-243.4174624829468"/>
<rect fill="" height="10" width="10" x="3.971962616822429" y="-141.68030923146884"/>
<rect fill="" height="10" width="10" x="281.2483311081442" y="-72.72169167803547"/>
<rect fill="" height="10" width="10" x="276.762349799733" y="-140.7526148249204"/>
<rect fill="" height="10" width="10" x="466.6688918558078" y="-6.391541609822647"/>
<rect fill="" height="10" width="10" x="469.01869158878503" y="-208.16507503410642"/>
<rect fill="" height="10" width="10" x="373.7449933244326" y="-242.02592087312414"/>
<rect fill="" height="10" width="10" x="46.26835781041388" y="-6.391541609822647"/>
<rect fill="" height="10" width="10" x="6.962616822429906" y="-277.2783083219645"/>
<rect fill="" height="10" width="10" x="369.47263017356477" y="-141.21646202819463"/>
<rect fill="" height="10" width="10" x="95.82777036048064" y="-309.7476125511596"/>
<rect fill="" height="10" width="10" x="44.55941255006675" y="-310.8299226921328"/>
<rect fill="" height="10" width="10" x="98.39118825100134" y="-141.0618462937699"/>
<rect fill="" height="10" width="10" x="187.68357810413886" y="-343.91768985902684"/>
<rect fill="" height="10" width="10" x="88.35113484646195" y="-208.16507503410642"/>
<rect fill="" height="10" width="10" x="285.3070761014686" y="-107.66484765802637"/>
<rect fill="" height="10" width="10" x="183.8384512683578" y="-309.7476125511596"/>
<rect fill="" height="10" width="10" x="463.2510013351135" y="-39.63392451114143"/>
<rect fill="" height="10" width="10" x="284.0253671562083" y="-310.3660754888586"/>
<rect fill="" height="10" width="10" x="427.3631508678238" y="-344.6907685311505"/>
<rect fill="" height="10" width="10" x="283.5981308411215" y="-107.20100045475216"/>
<rect fill="" height="10" width="10" x="145.173564753004" y="-208.9381537062301"/>
<rect fill="" height="10" width="10" x="373.1041388518024" y="-243.10823101409733"/>
<rect fill="" height="10" width="10" x="373.7449933244326" y="-5.618462937698954"/>
<rect fill="" height="10" width="10" x="281.8891855807744" y="-107.51023192360164"/>
<rect fill="" height="10" width="10" x="279.53938584779706" y="-141.21646202819463"/>
<rect fill="" height="10" width="10" x="147.52336448598132" y="-310.6753069577081"/>
<rect fill="" height="10" width="10" x="327.6034712950601" y="-5.927694406548431"/>
<rect fill="" height="10" width="10" x="282.74365821094796" y="-107.20100045475216"/>
<rect fill="" height="10" width="10" x="328.03070761014686" y="-39.01546157344247"/>
<rect fill="" height="10" width="10" x="322.2630173564753" y="-311.1391541609823"/>
<rect fill="" height="10" width="10" x="374.59946595460616" y="-243.26284674852207"/>
<rect fill="" height="10" width="10" x="326.9626168224299" y="-276.8144611186903"/>
<rect fill="" height="10" width="10" x="182.55674232309747" y="-141.37107776261936"/>
<rect fill="" height="10" width="10" x="276.762349799733" y="-73.18553888130968"/>
<rect fill="" height="10" width="10" x="190.03337783711615" y="-107.04638472032742"/>
<rect fill="" height="10" width="10" x="467.30974632843794" y="-242.79899954524785"/>
<rect fill="" height="10" width="10" x="419.2456608811749" y="-309.7476125511596"/>
<rect fill="" height="10" width="10" x="425.6542056074766" y="-343.7630741246021"/>
<rect fill="" height="10" width="10" x="327.6034712950601" y="-276.8144611186903"/>
<rect fill="" height="10" width="10" x="89.84646194926569" y="-275.8867667121419"/>
<rect fill="" height="10" width="10" x="370.32710280373834" y="-73.6493860845839"/>
<rect fill="" height="10" width="10" x="98.17757009345794" y="-107.3556161891769"/>
<rect fill="" height="10" width="10" x="326.9626168224299" y="-40.25238744884038"/>
<rect fill="" height="10" width="10" x="381.43524699599465" y="-39.01546157344247"/>
<rect fill="" height="10" width="10" x="52.249666221628836" y="-344.84538426557526"/>
<rect fill="" height="10" width="10" x="50.7543391188251" y="-140.59799909049568"/>
<rect fill="" height="10" width="10" x="420.52736982643523" y="-141.21646202819463"/>
<rect fill="" height="10" width="10" x="48.4045393858478" y="-107.20100045475216"/>
<rect fill="" height="10" width="10" x="92.40987983978638" y="-6.236925875397908"/>
<rect fill="" height="10" width="10" x="95.18691588785046" y="-74.11323328785812"/>
<rect fill="" height="10" width="10" x="50.7543391188251" y="-276.3506139154161"/>
<rect fill="" height="10" width="10" x="422.2363150867824" y="-140.90723055934515"/>
<rect fill="" height="10" width="10" x="187.68357810413886" y="-39.32469304229195"/>
<rect fill="" height="10" width="10" x="188.5380507343124" y="-107.97407912687585"/>
<rect fill="" height="10" width="10" x="322.2630173564753" y="-275.8867667121419"/>
<rect fill="" height="10" width="10" x="98.17757009345794" y="-5.618462937698954"/>
<rect fill="" height="10" width="10" x="92.19626168224299" y="-242.79899954524785"/>
<rect fill="" height="10" width="10" x="187.68357810413886" y="-242.02592087312414"/>
<rect fill="" height="10" width="10" x="53.3177570093458" y="-277.2783083219645"/>
<rect fill="" height="10" width="10" x="327.1762349799733" y="-242.18053660754887"/>
<rect fill="" height="10" width="10" x="134.70627503337784" y="-141.37107776261936"/>
<rect fill="" height="10" width="10" x="471.7957276368491" y="-209.40200090950432"/>
<rect fill="" height="10" width="10" x="286.3751668891856" y="-208.16507503410642"/>
<rect fill="" height="10" width="10" x="191.74232309746327" y="-276.8144611186903"/>
<rect fill="" height="10" width="10" x="326.3217623497997" y="-73.34015461573442"/>
<rect fill="" height="10" width="10" x="191.74232309746327" y="-276.96907685311504"/>
<rect fill="" height="10" width="10" x="90.06008010680908" y="-39.47930877671669"/>
<rect fill="" height="10" width="10" x="141.54205607476635" y="-276.65984538426557"/>
<rect fill="" height="10" width="10" x="0.1268357810413887" y="-141.21646202819463"/>
<rect fill="" height="10" width="10" x="322.0493991989319" y="-209.55661664392906"/>
<rect fill="" height="10" width="10" x="143.25100133511347" y="-310.98453842655755"/>
<rect fill="" height="10" width="10" x="194.30574098798397" y="-343.91768985902684"/>
<rect fill="" height="10" width="10" x="144.95994659546062" y="-140.90723055934515"/>
<rect fill="" height="10" width="10" x="42.850467289719624" y="-39.78854024556617"/>
<rect fill="" height="10" width="10" x="287.8704939919893" y="-107.51023192360164"/>
<rect fill="" height="10" width="10" x="278.4712950600801" y="-107.81946339245111"/>
<rect fill="" height="10" width="10" x="189.39252336448598" y="-107.97407912687585"/>
<rect fill="" height="10" width="10" x="373.7449933244326" y="-107.04638472032742"/>
<rect fill="" height="10" width="10" x="372.6769025367156" y="-72.72169167803547"/>
<rect fill="" height="10" width="10" x="280.60747663551405" y="-107.04638472032742"/>
<rect fill="" height="10" width="10" x="134.70627503337784" y="-73.34015461573442"/>
<rect fill="" height="10" width="10" x="194.0921228304406" y="-140.44338335607094"/>
<rect fill="" height="10" width="10" x="463.89185580774364" y="-141.5256934970441"/>
<rect fill="" height="10" width="10" x="96.46862483311081" y="-209.2473851750796"/>
<rect fill="" height="10" width="10" x="191.1014686248331" y="-309.90222828558433"/>
<rect fill="" height="10" width="10" x="146.66889185580774" y="-277.1236925875398"/>
<rect fill="" height="10" width="10" x="419.0320427236315" y="-106.73715325147795"/>
<rect fill="" height="10" width="10" x="280.18024032042723" y="-107.51023192360164"/>
<rect fill="" height="10" width="10" x="52.249666221628836" y="-242.18053660754887"/>
<rect fill="" height="10" width="10" x="420.74098798397864" y="-276.0413824465666"/>
<rect fill="" height="10" width="10" x="475" y="-140.7526148249204"/>
<rect fill="" height="10" width="10" x="463.0373831775701" y="-310.52069122328334"/>
<rect fill="" height="10" width="10" x="467.30974632843794" y="-6.236925875397908"/>
<rect fill="" height="10" width="10" x="93.05073431241655" y="-309.7476125511596"/>
<rect fill="" height="10" width="10" x="276.9759679572764" y="-106.58253751705321"/>
<rect fill="" height="10" width="10" x="4.826435246995995" y="-5.618462937698954"/>
<rect fill="" height="10" width="10" x="330.3805073431242" y="-242.02592087312414"/>
<rect fill="" height="10" width="10" x="44.77303070761015" y="-208.9381537062301"/>
<rect fill="" height="10" width="10" x="-2.2229639519359146" y="-242.9536152796726"/>
<rect fill="" height="10" width="10" x="467.7369826435247" y="-39.47930877671669"/>
<rect fill="" height="10" width="10" x="468.37783711615486" y="-141.5256934970441"/>
<rect fill="" height="10" width="10" x="53.104138851802404" y="-243.10823101409733"/>
<rect fill="" height="10" width="10" x="474.57276368491324" y="-345"/>
<rect fill="" height="10" width="10" x="423.94526034712953" y="-73.6493860845839"/>
<rect fill="" height="10" width="10" x="90.27369826435248" y="-344.2269213278763"/>
<rect fill="" height="10" width="10" x="100.74098798397864" y="-242.48976807639835"/>
<rect fill="" height="10" width="10" x="369.6862483311081" y="-107.3556161891769"/>
<rect fill="" height="10" width="10" x="369.6862483311081" y="-311.1391541609823"/>
<rect fill="" height="10" width="10" x="-3.5046728971962615" y="-141.0618462937699"/>
<rect fill="" height="10" width="10" x="143.25100133511347" y="-39.47930877671669"/>
<rect fill="" height="10" width="10" x="100.74098798397864" y="-243.26284674852207"/>
<rect fill="" height="10" width="10" x="417.109479305741" y="-6.236925875397908"/>
<rect fill="" height="10" width="10" x="284.66622162883846" y="-310.3660754888586"/>
<rect fill="" height="10" width="10" x="138.1241655540721" y="-344.84538426557526"/>
<rect fill="" height="10" width="10" x="140.90120160213618" y="-208.9381537062301"/>
<rect fill="" height="10" width="10" x="370.32710280373834" y="-5.618462937698954"/>
<rect fill="" height="10" width="10" x="98.17757009345794" y="-140.44338335607094"/>
<rect fill="" height="10" width="10" x="53.95861148197597" y="-73.34015461573442"/>
<rect fill="" height="10" width="10" x="424.1588785046729" y="-141.0618462937699"/>
<rect fill="" height="10" width="10" x="-1.7957276368491324" y="-343.60845839017736"/>
<rect fill="" height="10" width="10" x="284.45260347129505" y="-310.3660754888586"/>
<rect fill="" height="10" width="10" x="4.612817089452603" y="-39.47930877671669"/>
<rect fill="" height="10" width="10" x="462.18291054739655" y="-310.8299226921328"/>
<rect fill="" height="10" width="10" x="51.395193591455275" y="-209.55661664392906"/>
<rect fill="" height="10" width="10" x="95.61415220293725" y="-74.11323328785812"/>
<rect fill="" height="10" width="10" x="140.90120160213618" y="-141.21646202819463"/>
<rect fill="" height="10" width="10" x="41.141522029372496" y="-5.927694406548431"/>
<rect fill="" height="10" width="10" x="326.3217623497997" y="-141.5256934970441"/>
<rect fill="" height="10" width="10" x="93.90520694259013" y="-243.10823101409733"/>
<rect fill="" height="10" width="10" x="422.4499332443258" y="-276.5052296498408"/>
<rect fill="" height="10" width="10" x="278.8985313751669" y="-310.52069122328334"/>
<rect fill="" height="10" width="10" x="379.9399198931909" y="-107.97407912687585"/>
<rect fill="" height="10" width="10" x="416.4686248331108" y="-209.09276944065485"/>
<rect fill="" height="10" width="10" x="463.89185580774364" y="-73.18553888130968"/>
<rect fill="" height="10" width="10" x="422.2363150867824" y="-107.97407912687585"/>
<rect fill="" height="10" width="10" x="471.7957276368491" y="-73.80400181900865"/>
<rect fill="" height="10" width="10" x="7.389853137516688" y="-343.60845839017736"/>
<rect fill="" height="10" width="10" x="334.4392523364486" y="-6.391541609822647"/>
<rect fill="" height="10" width="10" x="90.48731642189586" y="-38.860845839017735"/>
<rect fill="" height="10" width="10" x="96.46862483311081" y="-276.3506139154161"/>
<rect fill="" height="10" width="10" x="7.176234979973298" y="-107.81946339245111"/>
<rect fill="" height="10" width="10" x="191.1014686248331" y="-277.2783083219645"/>
<rect fill="" height="10" width="10" x="141.75567423230976" y="-141.0618462937699"/>
<rect fill="" height="10" width="10" x="326.9626168224299" y="-209.09276944065485"/>
<rect fill="" height="10" width="10" x="287.8704939919893" y="-310.8299226921328"/>
<rect fill="" height="10" width="10" x="282.74365821094796" y="-5"/>
<rect fill="" height="10" width="10" x="375.4539385847797" y="-343.7630741246021"/>
<rect fill="" height="10" width="10" x="275.9078771695594" y="-107.81946339245111"/>
<rect fill="" height="10" width="10" x="371.39519359145527" y="-140.44338335607094"/>
<rect fill="" height="10" width="10" x="181.7022696929239" y="-242.02592087312414"/>
<rect fill="" height="10" width="10" x="137.26969292389853" y="-208.78353797180537"/>
<rect fill="" height="10" width="10" x="284.23898531375164" y="-208.78353797180537"/>
<rect fill="" height="10" width="10" x="375.4539385847797" y="-5.773078672123693"/>
<rect fill="" height="10" width="10" x="53.95861148197597" y="-5.309231468849477"/>
<rect fill="" height="10" width="10" x="138.1241655540721" y="-343.91768985902684"/>
<rect fill="" height="10" width="10" x="332.7303070761015" y="-243.10823101409733"/>
<rect fill="" height="10" width="10" x="183.19759679572763" y="-344.38153706230105"/>
<rect fill="" height="10" width="10" x="280.18024032042723" y="-344.84538426557526"/>
<rect fill="" height="10" width="10" x="472.8638184245661" y="-208.62892223738064"/>
<rect fill="" height="10" width="10" x="45.20026702269693" y="-276.65984538426557"/>
<rect fill="" height="10" width="10" x="50.7543391188251" y="-5.463847203274216"/>
<rect fill="" height="10" width="10" x="469.8731642189586" y="-275.8867667121419"/>
<rect fill="" height="10" width="10" x="92.40987983978638" y="-344.5361527967258"/>
<rect fill="" height="10" width="10" x="276.1214953271028" y="-6.236925875397908"/>
<rect fill="" height="10" width="10" x="41.568758344459276" y="-106.58253751705321"/>
<rect fill="" height="10" width="10" x="185.12016021361816" y="-72.8763074124602"/>
<rect fill="" height="10" width="10" x="52.03604806408545" y="-106.89176898590269"/>
<rect fill="" height="10" width="10" x="285.7343124165554" y="-209.09276944065485"/>
<rect fill="" height="10" width="10" x="374.8130841121495" y="-345"/>
<rect fill="" height="10" width="10" x="282.74365821094796" y="-72.72169167803547"/>
<rect fill="" height="10" width="10" x="321.83578104138854" y="-310.52069122328334"/>
<rect fill="" height="10" width="10" x="462.18291054739655" y="-141.37107776261936"/>
<rect fill="" height="10" width="10" x="426.2950600801068" y="-73.80400181900865"/>
<rect fill="" height="10" width="10" x="51.395193591455275" y="-209.09276944065485"/>
<rect fill="" height="10" width="10" x="373.7449933244326" y="-140.90723055934515"/>
<rect fill="" height="10" width="10" x="369.6862483311081" y="-106.73715325147795"/>
<rect fill="" height="10" width="10" x="49.04539385847797" y="-6.391541609822647"/>
<rect fill="" height="10" width="10" x="471.7957276368491" y="-107.81946339245111"/>
<rect fill="" height="10" width="10" x="423.94526034712953" y="-6.391541609822647"/>
<rect fill="" height="10" width="10" x="330.3805073431242" y="-242.79899954524785"/>
<rect fill="" height="10" width="10" x="51.395193591455275" y="-106.73715325147795"/>
<rect fill="" height="10" width="10" x="372.03604806408543" y="-242.64438381082311"/>
<rect fill="" height="10" width="10" x="381.43524699599465" y="-310.52069122328334"/>
<rect fill="" height="10" width="10" x="287.8704939919893" y="-73.18553888130968"/>
<rect fill="" height="10" width="10" x="100.74098798397864" y="-106.73715325147795"/>
<rect fill="" height="10" width="10" x="90.06008010680908" y="-107.20100045475216"/>
<rect fill="" height="10" width="10" x="330.3805073431242" y="-310.52069122328334"/>
<rect fill="" height="10" width="10" x="90.48731642189586" y="-5.618462937698954"/>
<rect fill="" height="10" width="10" x="328.03070761014686" y="-140.90723055934515"/>
<rect fill="" height="10" width="10" x="137.05607476635515" y="-107.20100045475216"/>
</g>
</g>
<g>
<g>
<line stroke="black" stroke-width="1" x1="27.983978638184247" x2="27.983978638184247" y1="0" y2="10"/>
<line stroke="black" stroke-width="1" x1="113.43124165554072" x2="113.43124165554072" y1="0" y2="10"/>
<line stroke="black" stroke-width="1" x1="198.8785046728972" x2="198.8785046728972" y1="0" y2="10"/>
<line stroke="black" stroke-width="1" x1="284.32576769025366" x2="284.32576769025366" y1="0" y2="10"/>
<line stroke="black" stroke-width="1" x1="369.77303070761013" x2="369.77303070761013" y1="0" y2="10"/>
<line stroke="black" stroke-width="1" x1="455.2202937249666" x2="455.2202937249666" y1="0" y2="10"/>
</g>
<line stroke="black" stroke-width="1" x1="0" x2="480" y1="0" y2="0"/>
<g>
<text font-size="12" text-anchor="middle" x="27.983978638184247" y="20">
-800
</text>
<text font-size="12" text-anchor="middle" x="113.43124165554072" y="20">
-400
</text>
<text font-size="12" text-anchor="middle" x="198.8785046728972" y="20">
0
</text>
<text font-size="12" text-anchor="middle" x="284.32576769025366" y="20">
400
</text>
<text font-size="12" text-anchor="middle" x="369.77303070761013" y="20">
800
</text>
<text font-size="12" text-anchor="middle" x="455.2202937249666" y="20">
1200
</text>
</g>
<text font-size="12" text-anchor="middle" x="240" y="30">

</text>
</g>
<g>
<g>
<line stroke="black" stroke-width="1" x1="0" x2="-10" y1="-19.79081400636653" y2="-19.79081400636653"/>
<line stroke="black" stroke-width="1" x1="0" x2="-10" y1="-81.63710777626194" y2="-81.63710777626194"/>
<line stroke="black" stroke-width="1" x1="0" x2="-10" y1="-143.48340154615735" y2="-143.48340154615735"/>
<line stroke="black" stroke-width="1" x1="0" x2="-10" y1="-205.32969531605275" y2="-205.32969531605275"/>
<line stroke="black" stroke-width="1" x1="0" x2="-10" y1="-267.1759890859482" y2="-267.1759890859482"/>
<line stroke="black" stroke-width="1" x1="0" x2="-10" y1="-329.02228285584357" y2="-329.02228285584357"/>
</g>
<line stroke="black" stroke-width="1" x1="0" x2="0" y1="0" y2="-340"/>
<g>
<text dominant-baseline="middle" font-size="12" text-anchor="end" x="-15" y="-19.79081400636653">
-800
</text>
<text dominant-baseline="middle" font-size="12" text-anchor="end" x="-15" y="-81.63710777626194">
-400
</text>
<text dominant-baseline="middle" font-size="12" text-anchor="end" x="-15" y="-143.48340154615735">
0
</text>
<text dominant-baseline="middle" font-size="12" text-anchor="end" x="-15" y="-205.32969531605275">
400
</text>
<text dominant-baseline="middle" font-size="12" text-anchor="end" x="-15" y="-267.1759890859482">
800
</text>
<text dominant-baseline="middle" font-size="12" text-anchor="end" x="-15" y="-329.02228285584357">
1200
</text>
</g>
<text font-size="12" text-anchor="middle" transform="rotate(-90 -48 -170)" x="-48" y="-182">

</text>
</g>
</g>
</svg>