<svg viewBox="0 0 600 400" xmlns="http://www.w3.org/2000/svg">
<g transform="translate(72, 364)">
<g>
<g>
<rect fill="" height="10" width="10" x="378.22753687974966" y="-208.31658291457288"/>
<rect fill="" height="10" width="10" x="138.12025033527044" y="-344.06806761078116"/>
<rect fill="" height="10" width="10" x="41.13321412606169" y="-310.98446779351303"/>
<rect fill="" height="10" width="10" x="93.27447474295933" y="-5.310644129739607"/>
<rect fill="" height="10" width="10" x="50.57443004023246" y="-344.223389675651"/>
<rect fill="" height="10" width="10" x="95.42020563254358" y="-276.5029693924166"/>
<rect fill="" height="10" width="10" x="1.222619579794367" y="-107.82320694380996"/>
<rect fill="" height="10" width="10" x="92.20160929816718" y="-343.7574234810416"/>
<rect fill="" height="10" width="10" x="1.222619579794367" y="-39.636820465966196"/>
<rect fill="" height="10" width="10" x="423.9316048278945" y="-276.0370031978072"/>
<rect fill="" height="10" width="10" x="-5" y="-5.776610324349018"/>
<rect fill="" height="10" width="10" x="283.815377738042" y="-276.5029693924166"/>
<rect fill="" height="10" width="10" x="333.1671881984801" y="-311.1397898583828"/>
<rect fill="" height="10" width="10" x="139.83683504693786" y="-39.17085427135678"/>
<rect fill="" height="10" width="10" x="468.34823424228875" y="-73.65235267245318"/>
<rect fill="" height="10" width="10" x="138.5493965131873" y="-39.636820465966196"/>
<rect fill="" height="10" width="10" x="464.7004917299955" y="-242.02147099132023"/>
<rect fill="" height="10" width="10" x="373.7215020116227" y="-140.4408405664687"/>
<rect fill="" height="10" width="10" x="462.9839070183281" y="-5"/>
<rect fill="" height="10" width="10" x="421.5713008493518" y="-5.621288259479214"/>
<rect fill="" height="10" width="10" x="326.94456861868576" y="-311.1397898583828"/>
<rect fill="" height="10" width="10" x="326.94456861868576" y="-276.5029693924166"/>
<rect fill="" height="10" width="10" x="464.7004917299955" y="-72.72042028323435"/>
<rect fill="" height="10" width="10" x="52.50558784085829" y="-72.72042028323435"/>
<rect fill="" height="10" width="10" x="326.3008493518105" y="-140.90680676107812"/>
<rect fill="" height="10" width="10" x="328.66115333035316" y="-72.72042028323435"/>
<rect fill="" height="10" width="10" x="329.30487259722844" y="-345"/>
<rect fill="" height="10" width="10" x="93.70362092087618" y="-310.5185015989036"/>
<rect fill="" height="10" width="10" x="420.92758158247653" y="-39.48149840109639"/>
<rect fill="" height="10" width="10" x="423.9316048278945" y="-107.04659661946094"/>
<rect fill="" height="10" width="10" x="98.20965578900312" y="-344.8446779351302"/>
<rect fill="" height="10" width="10" x="380.8024139472508" y="-6.397898583828232"/>
<rect fill="" height="10" width="10" x="381.44613321412606" y="-6.242576518958429"/>
<rect fill="" height="10" width="10" x="145.20116227089852" y="-276.65829145728645"/>
<rect fill="" height="10" width="10" x="-5" y="-141.83873915029693"/>
<rect fill="" height="10" width="10" x="136.61823871256146" y="-39.48149840109639"/>
<rect fill="" height="10" width="10" x="332.09432275368795" y="-344.37871174052077"/>
<rect fill="" height="10" width="10" x="425.64818953956194" y="-5.310644129739607"/>
<rect fill="" height="10" width="10" x="52.50558784085829" y="-141.83873915029693"/>
<rect fill="" height="10" width="10" x="141.7679928475637" y="-309.7418912745546"/>
<rect fill="" height="10" width="10" x="282.95708538220833" y="-208.16126084970307"/>
<rect fill="" height="10" width="10" x="324.58426464014303" y="-38.86021014161717"/>
<rect fill="" height="10" width="10" x="-1.9959767545820295" y="-39.636820465966196"/>
<rect fill="" height="10" width="10" x="184.8971837282074" y="-40.25810872544541"/>
<rect fill="" height="10" width="10" x="44.56638354939651" y="-310.6738236637734"/>
<rect fill="" height="10" width="10" x="89.62673223066606" y="-242.02147099132023"/>
<rect fill="" height="10" width="10" x="134.68708091193562" y="-208.62722704431246"/>
<rect fill="" height="10" width="10" x="278.4510505140814" y="-209.09319323892188"/>
<rect fill="" height="10" width="10" x="2.2954850245865" y="-38.86021014161717"/>
<rect fill="" height="10" width="10" x="-1.5668305766651764" y="-73.49703060758337"/>
<rect fill="" height="10" width="10" x="466.63164953062136" y="-73.96299680219278"/>
<rect fill="" height="10" width="10" x="-1.1376843987483238" y="-5.310644129739607"/>
<rect fill="" height="10" width="10" x="465.55878408582925" y="-310.8291457286432"/>
<rect fill="" height="10" width="10" x="284.6736700938757" y="-39.17085427135678"/>
<rect fill="" height="10" width="10" x="140.90970049173" y="-140.90680676107812"/>
<rect fill="" height="10" width="10" x="285.317389360751" y="-276.5029693924166"/>
<rect fill="" height="10" width="10" x="415.56325435851585" y="-277.2795797167656"/>
<rect fill="" height="10" width="10" x="468.34823424228875" y="-242.33211512105984"/>
<rect fill="" height="10" width="10" x="425.00447027268666" y="-140.7514846962083"/>
<rect fill="" height="10" width="10" x="472.4251229324989" y="-107.97852900867976"/>
<rect fill="" height="10" width="10" x="281.2405006705409" y="-208.47190497944266"/>
<rect fill="" height="10" width="10" x="475" y="-39.636820465966196"/>
<rect fill="" height="10" width="10" x="138.76396960214572" y="-5.776610324349018"/>
<rect fill="" height="10" width="10" x="-2.210549843540456" y="-243.10872544540885"/>
<rect fill="" height="10" width="10" x="325.2279839070183" y="-276.5029693924166"/>
<rect fill="" height="10" width="10" x="323.5113991953509" y="-39.792142530835996"/>
<rect fill="" height="10" width="10" x="472.8542691104157" y="-73.65235267245318"/>
<rect fill="" height="10" width="10" x="44.56638354939651" y="-242.64275925079946"/>
<rect fill="" height="10" width="10" x="381.6607063030845" y="-106.58063042485153"/>
<rect fill="" height="10" width="10" x="1.437192668752794" y="-141.06212882594792"/>
<rect fill="" height="10" width="10" x="471.7814036656236" y="-39.792142530835996"/>
<rect fill="" height="10" width="10" x="278.8801966919982" y="-107.35724074920054"/>
<rect fill="" height="10" width="10" x="47.35583370585606" y="-310.98446779351303"/>
<rect fill="" height="10" width="10" x="375.4380867232901" y="-242.33211512105984"/>
<rect fill="" height="10" width="10" x="275.6616003576218" y="-106.58063042485153"/>
<rect fill="" height="10" width="10" x="378.22753687974966" y="-5.776610324349018"/>
<rect fill="" height="10" width="10" x="187.68663388466697" y="-343.60210141617176"/>
<rect fill="" height="10" width="10" x="-5" y="-141.21745089081773"/>
<rect fill="" height="10" width="10" x="285.53196244970945" y="-141.21745089081773"/>
<rect fill="" height="10" width="10" x="323.94054537326775" y="-275.8816811329374"/>
<rect fill="" height="10" width="10" x="465.55878408582925" y="-5.776610324349018"/>
<rect fill="" height="10" width="10" x="420.4984354045597" y="-242.48743718592965"/>
<rect fill="" height="10" width="10" x="471.7814036656236" y="-275.8816811329374"/>
<rect fill="" height="10" width="10" x="323.94054537326775" y="-38.86021014161717"/>
<rect fill="" height="10" width="10" x="139.83683504693786" y="-310.3631795340338"/>
<rect fill="" height="10" width="10" x="-0.49396513187304425" y="-140.7514846962083"/>
<rect fill="" height="10" width="10" x="285.317389360751" y="-345"/>
<rect fill="" height="10" width="10" x="92.41618238712562" y="-39.636820465966196"/>
<rect fill="" height="10" width="10" x="89.62673223066606" y="-6.242576518958429"/>
<rect fill="" height="10" width="10" x="87.91014751899866" y="-276.0370031978072"/>
<rect fill="" height="10" width="10" x="143.91372373714796" y="-242.64275925079946"/>
<rect fill="" height="10" width="10" x="183.18059901654001" y="-107.35724074920054"/>
<rect fill="" height="10" width="10" x="87.91014751899866" y="-107.35724074920054"/>
<rect fill="" height="10" width="10" x="-4.785426911041574" y="-310.98446779351303"/>
<rect fill="" height="10" width="10" x="372.0049172999553" y="-39.17085427135678"/>
<rect fill="" height="10" width="10" x="423.9316048278945" y="-276.0370031978072"/>
<rect fill="" height="10" width="10" x="51.43272239606616" y="-107.35724074920054"/>
<rect fill="" height="10" width="10" x="46.28296826106393" y="-310.8291457286432"/>
<rect fill="" height="10" width="10" x="89.62673223066606" y="-343.7574234810416"/>
<rect fill="" height="10" width="10" x="468.34823424228875" y="-243.41936957514847"/>
<rect fill="" height="10" width="10" x="467.27536879749664" y="-276.0370031978072"/>
<rect fill="" height="10" width="10" x="94.13276709879302" y="-276.5029693924166"/>
<rect fill="" height="10" width="10" x="285.74653553866784" y="-310.6738236637734"/>
<rect fill="" height="10" width="10" x="280.3822083147072" y="-5.310644129739607"/>
<rect fill="" height="10" width="10" x="334.0254805543138" y="-311.1397898583828"/>
<rect fill="" height="10" width="10" x="45.63924899418865" y="-39.9474645957058"/>
<rect fill="" height="10" width="10" x="321.7948144836835" y="-73.18638647784377"/>
<rect fill="" height="10" width="10" x="189.18864550737595" y="-141.06212882594792"/>
<rect fill="" height="10" width="10" x="417.06526598122485" y="-40.25810872544541"/>
<rect fill="" height="10" width="10" x="4.0120697362539115" y="-208.78254910918227"/>
<rect fill="" height="10" width="10" x="279.5239159588735" y="-140.7514846962083"/>
<rect fill="" height="10" width="10" x="91.34331694233349" y="-40.25810872544541"/>
<rect fill="" height="10" width="10" x="88.98301296379078" y="-345"/>
<rect fill="" height="10" width="10" x="147.56146624944122" y="-5.776610324349018"/>
<rect fill="" height="10" width="10" x="463.84219937416185" y="-277.12425765189585"/>
<rect fill="" height="10" width="10" x="375.4380867232901" y="-140.5961626313385"/>
<rect fill="" height="10" width="10" x="378.22753687974966" y="-309.7418912745546"/>
<rect fill="" height="10" width="10" x="1.6517657577112201" y="-343.60210141617176"/>
<rect fill="" height="10" width="10" x="424.14617791685293" y="-242.64275925079946"/>
<rect fill="" height="10" width="10" x="135.75994635672777" y="-243.41936957514847"/>
<rect fill="" height="10" width="10" x="-3.927134555207868" y="-6.087254454088625"/>
<rect fill="" height="10" width="10" x="47.35583370585606" y="-309.8972133394244"/>
<rect fill="" height="10" width="10" x="469.4210996870809" y="-106.58063042485153"/>
<rect fill="" height="10" width="10" x="374.7943674564148" y="-208.31658291457288"/>
<rect fill="" height="10" width="10" x="417.4944121591417" y="-106.58063042485153"/>
<rect fill="" height="10" width="10" x="377.79839070183283" y="-208.78254910918227"/>
<rect fill="" height="10" width="10" x="183.18059901654001" y="-107.97852900867976"/>
<rect fill="" height="10" width="10" x="419.8547161376844" y="-40.25810872544541"/>
<rect fill="" height="10" width="10" x="420.7130084935181" y="-208.31658291457288"/>
<rect fill="" height="10" width="10" x="41.77693339293697" y="-107.97852900867976"/>
<rect fill="" height="10" width="10" x="194.3383996423782" y="-309.7418912745546"/>
<rect fill="" height="10" width="10" x="49.716137684398745" y="-343.9127455459114"/>
<rect fill="" height="10" width="10" x="373.7215020116227" y="-310.5185015989036"/>
<rect fill="" height="10" width="10" x="475" y="-208.31658291457288"/>
<rect fill="" height="10" width="10" x="277.59275815824765" y="-39.48149840109639"/>
<rect fill="" height="10" width="10" x="286.17568171658473" y="-343.7574234810416"/>
<rect fill="" height="10" width="10" x="285.317389360751" y="-141.68341708542712"/>
<rect fill="" height="10" width="10" x="467.27536879749664" y="-276.96893558702607"/>
<rect fill="" height="10" width="10" x="92.41618238712562" y="-6.397898583828232"/>
<rect fill="" height="10" width="10" x="418.78185069289225" y="-39.32617633622659"/>
<rect fill="" height="10" width="10" x="373.0777827447474" y="-344.8446779351302"/>
<rect fill="" height="10" width="10" x="282.31336611533305" y="-243.41936957514847"/>
<rect fill="" height="10" width="10" x="285.317389360751" y="-106.73595248972133"/>
<rect fill="" height="10" width="10" x="141.5534197586053" y="-209.4038373686615"/>
<rect fill="" height="10" width="10" x="464.91506481895397" y="-140.4408405664687"/>
<rect fill="" height="10" width="10" x="278.4510505140814" y="-243.41936957514847"/>
<rect fill="" height="10" width="10" x="100.78453285650424" y="-208.16126084970307"/>
<rect fill="" height="10" width="10" x="375.4380867232901" y="-141.06212882594792"/>
<rect fill="" height="10" width="10" x="7.445239159588734" y="-208.16126084970307"/>
<rect fill="" height="10" width="10" x="135.75994635672777" y="-208.93787117405208"/>
<rect fill="" height="10" width="10" x="376.0818059901654" y="-106.58063042485153"/>
<rect fill="" height="10" width="10" x="140.48055431381314" y="-141.37277295568754"/>
<rect fill="" height="10" width="10" x="47.99955297273134" y="-6.087254454088625"/>
<rect fill="" height="10" width="10" x="472.4251229324989" y="-5.931932389218821"/>
<rect fill="" height="10" width="10" x="41.13321412606169" y="-276.0370031978072"/>
<rect fill="" height="10" width="10" x="282.52793920429144" y="-106.58063042485153"/>
<rect fill="" height="10" width="10" x="368.57174787662046" y="-343.9127455459114"/>
<rect fill="" height="10" width="10" x="325.2279839070183" y="-276.65829145728645"/>
<rect fill="" height="10" width="10" x="136.40366562360305" y="-140.7514846962083"/>
<rect fill="" height="10" width="10" x="329.09029950827" y="-242.02147099132023"/>
<rect fill="" height="10" width="10" x="378.0129637907912" y="-344.223389675651"/>
<rect fill="" height="10" width="10" x="375.4380867232901" y="-310.3631795340338"/>
<rect fill="" height="10" width="10" x="-0.0648189539561912" y="-5.621288259479214"/>
<rect fill="" height="10" width="10" x="2.9392042914617793" y="-310.6738236637734"/>
<rect fill="" height="10" width="10" x="275.0178810907465" y="-208.78254910918227"/>
<rect fill="" height="10" width="10" x="422.42959320518554" y="-141.83873915029693"/>
<rect fill="" height="10" width="10" x="45.63924899418865" y="-39.636820465966196"/>
<rect fill="" height="10" width="10" x="377.5838176128744" y="-208.78254910918227"/>
<rect fill="" height="10" width="10" x="463.19848010728657" y="-73.80767473732298"/>
<rect fill="" height="10" width="10" x="190.04693786320965" y="-242.33211512105984"/>
<rect fill="" height="10" width="10" x="47.35583370585606" y="-107.97852900867976"/>
<rect fill="" height="10" width="10" x="332.7380420205632" y="-243.10872544540885"/>
<rect fill="" height="10" width="10" x="97.56593652212786" y="-310.3631795340338"/>
<rect fill="" height="10" width="10" x="472.6396960214573" y="-344.223389675651"/>
<rect fill="" height="10" width="10" x="47.99955297273134" y="-208.16126084970307"/>
<rect fill="" height="10" width="10" x="139.83683504693786" y="-107.66788487894016"/>
<rect fill="" height="10" width="10" x="42.206079570853824" y="-5.155322064869804"/>
<rect fill="" height="10" width="10" x="-2.210549843540456" y="-310.5185015989036"/>
<rect fill="" height="10" width="10" x="47.99955297273134" y="-243.41936957514847"/>
<rect fill="" height="10" width="10" x="4.0120697362539115" y="-141.68341708542712"/>
<rect fill="" height="10" width="10" x="281.2405006705409" y="-72.72042028323435"/>
<rect fill="" height="10" width="10" x="276.7344658024139" y="-140.7514846962083"/>
<rect fill="" height="10" width="10" x="466.63164953062136" y="-6.397898583828232"/>
<rect fill="" height="10" width="10" x="468.99195350916403" y="-208.16126084970307"/>
<rect fill="" height="10" width="10" x="373.7215020116227" y="-242.02147099132023"/>
<rect fill="" height="10" width="10" x="46.28296826106393" y="-6.397898583828232"/>
<rect fill="" height="10" width="10" x="7.016092981671882" y="-277.2795797167656"/>
<rect fill="" height="10" width="10" x="369.4300402324542" y="-141.21745089081773"/>
<rect fill="" height="10" width="10" x="95.84935181046043" y="-309.7418912745546"/>
<rect fill="" height="10" width="10" x="44.56638354939651" y="-310.8291457286432"/>
<rect fill="" height="10" width="10" x="98.42422887796155" y="-141.06212882594792"/>
<rect fill="" height="10" width="10" x="187.68663388466697" y="-343.9127455459114"/>
<rect fill="" height="10" width="10" x="88.33929369691552" y="-208.16126084970307"/>
<rect fill="" height="10" width="10" x="285.317389360751" y="-107.66788487894016"/>
<rect fill="" height="10" width="10" x="183.8243182834153" y="-309.7418912745546"/>
<rect fill="" height="10" width="10" x="463.19848010728657" y="-39.636820465966196"/>
<rect fill="" height="10" width="10" x="284.02995082700045" y="-310.3631795340338"/>
<rect fill="" height="10" width="10" x="427.36477425122933" y="-344.6893558702604"/>
<rect fill="" height="10" width="10" x="283.6008046490836" y="-107.20191868433075"/>
<rect fill="" height="10" width="10" x="145.20116227089852" y="-208.93787117405208"/>
<rect fill="" height="10" width="10" x="373.0777827447474" y="-243.10872544540885"/>
<rect fill="" height="10" width="10" x="373.7215020116227" y="-5.621288259479214"/>
<rect fill="" height="10" width="10" x="281.88421993741616" y="-107.51256281407035"/>
<rect fill="" height="10" width="10" x="279.5239159588735" y="-141.21745089081773"/>
<rect fill="" height="10" width="10" x="147.56146624944122" y="-310.6738236637734"/>
<rect fill="" height="10" width="10" x="327.58828788556104" y="-5.931932389218821"/>
<rect fill="" height="10" width="10" x="282.7425122932499" y="-107.20191868433075"/>
<rect fill="" height="10" width="10" x="328.0174340634779" y="-39.01553220648698"/>
<rect fill="" height="10" width="10" x="322.22396066160036" y="-311.1397898583828"/>
<rect fill="" height="10" width="10" x="374.57979436745643" y="-243.26404751027866"/>
<rect fill="" height="10" width="10" x="326.94456861868576" y="-276.81361352215623"/>
<rect fill="" height="10" width="10" x="182.53687974966473" y="-141.37277295568754"/>
<rect fill="" height="10" width="10" x="276.7344658024139" y="-73.18638647784377"/>
<rect fill="" height="10" width="10" x="190.04693786320965" y="-107.04659661946094"/>
<rect fill="" height="10" width="10" x="467.27536879749664" y="-242.79808131566926"/>
<rect fill="" height="10" width="10" x="419.21099687080914" y="-309.7418912745546"/>
<rect fill="" height="10" width="10" x="425.64818953956194" y="-343.7574234810416"/>
<rect fill="" height="10" width="10" x="327.58828788556104" y="-276.81361352215623"/>
<rect fill="" height="10" width="10" x="89.8413053196245" y="-275.8816811329374"/>
<rect fill="" height="10" width="10" x="370.28833258828786" y="-73.65235267245318"/>
<rect fill="" height="10" width="10" x="98.20965578900312" y="-107.35724074920054"/>
<rect fill="" height="10" width="10" x="326.94456861868576" y="-40.25810872544541"/>
<rect fill="" height="10" width="10" x="381.44613321412606" y="-39.01553220648698"/>
<rect fill="" height="10" width="10" x="52.291014751899866" y="-344.8446779351302"/>
<rect fill="" height="10" width="10" x="50.78900312919088" y="-140.5961626313385"/>
<rect fill="" height="10" width="10" x="420.4984354045597" y="-141.21745089081773"/>
<rect fill="" height="10" width="10" x="48.42869915064819" y="-107.20191868433075"/>
<rect fill="" height="10" width="10" x="92.41618238712562" y="-6.242576518958429"/>
<rect fill="" height="10" width="10" x="95.20563254358515" y="-74.11831886706258"/>
<rect fill="" height="10" width="10" x="50.78900312919088" y="-276.34764732754684"/>
<rect fill="" height="10" width="10" x="422.2150201162271" y="-140.90680676107812"/>
<rect fill="" height="10" width="10" x="187.68663388466697" y="-39.32617633622659"/>
<rect fill="" height="10" width="10" x="188.54492624050067" y="-107.97852900867976"/>
<rect fill="" height="10" width="10" x="322.22396066160036" y="-275.8816811329374"/>
<rect fill="" height="10" width="10" x="98.20965578900312" y="-5.621288259479214"/>
<rect fill="" height="10" width="10" x="92.20160929816718" y="-242.79808131566926"/>
<rect fill="" height="10" width="10" x="187.68663388466697" y="-242.02147099132023"/>
<rect fill="" height="10" width="10" x="53.363880196692" y="-277.2795797167656"/>
<rect fill="" height="10" width="10" x="327.15914170764415" y="-242.17679305619004"/>
<rect fill="" height="10" width="10" x="134.68708091193562" y="-141.37277295568754"/>
<rect fill="" height="10" width="10" x="471.7814036656236" y="-209.4038373686615"/>
<rect fill="" height="10" width="10" x="286.3902548055431" y="-208.16126084970307"/>
<rect fill="" height="10" width="10" x="191.76352257487707" y="-276.81361352215623"/>
<rect fill="" height="10" width="10" x="326.3008493518105" y="-73.34170854271356"/>
<rect fill="" height="10" width="10" x="191.76352257487707" y="-276.96893558702607"/>
<rect fill="" height="10" width="10" x="90.05587840858293" y="-39.48149840109639"/>
<rect fill="" height="10" width="10" x="141.5534197586053" y="-276.65829145728645"/>
<rect fill="" height="10" width="10" x="0.1497541350022349" y="-141.21745089081773"/>
<rect fill="" height="10" width="10" x="322.0093875726419" y="-209.5591594335313"/>
<rect fill="" height="10" width="10" x="143.27000447027268" y="-310.98446779351303"/>
<rect fill="" height="10" width="10" x="194.3383996423782" y="-343.9127455459114"/>
<rect fill="" height="10" width="10" x="144.9865891819401" y="-140.90680676107812"/>
<rect fill="" height="10" width="10" x="42.849798837729104" y="-39.792142530835996"/>
<rect fill="" height="10" width="10" x="287.8922664282521" y="-107.51256281407035"/>
<rect fill="" height="10" width="10" x="278.4510505140814" y="-107.82320694380996"/>
<rect fill="" height="10" width="10" x="189.40321859633437" y="-107.97852900867976"/>
<rect fill="" height="10" width="10" x="373.7215020116227" y="-107.04659661946094"/>
<rect fill="" height="10" width="10" x="372.6486365668306" y="-72.72042028323435"/>
<rect fill="" height="10" width="10" x="280.5967814036656" y="-107.04659661946094"/>
<rect fill="" height="10" width="10" x="134.68708091193562" y="-73.34170854271356"/>
<rect fill="" height="10" width="10" x="194.12382655341975" y="-140.4408405664687"/>
<rect fill="" height="10" width="10" x="463.84219937416185" y="-141.52809502055734"/>
<rect fill="" height="10" width="10" x="96.49307107733571" y="-209.2485153037917"/>
<rect fill="" height="10" width="10" x="191.1198033080018" y="-309.8972133394244"/>
<rect fill="" height="10" width="10" x="146.7031738936075" y="-277.12425765189585"/>
<rect fill="" height="10" width="10" x="418.9964237818507" y="-106.73595248972133"/>
<rect fill="" height="10" width="10" x="280.16763522574877" y="-107.51256281407035"/>
<rect fill="" height="10" width="10" x="52.291014751899866" y="-242.17679305619004"/>
<rect fill="" height="10" width="10" x="420.7130084935181" y="-276.0370031978072"/>
<rect fill="" height="10" width="10" x="475" y="-140.7514846962083"/>
<rect fill="" height="10" width="10" x="462.9839070183281" y="-310.5185015989036"/>
<rect fill="" height="10" width="10" x="467.27536879749664" y="-6.242576518958429"/>
<rect fill="" height="10" width="10" x="93.0599016540009" y="-309.7418912745546"/>
<rect fill="" height="10" width="10" x="276.94903889137237" y="-106.58063042485153"/>
<rect fill="" height="10" width="10" x="4.870362092087618" y="-5.621288259479214"/>
<rect fill="" height="10" width="10" x="330.37773804202055" y="-242.02147099132023"/>
<rect fill="" height="10" width="10" x="44.78095663835494" y="-208.93787117405208"/>
<rect fill="" height="10" width="10" x="-2.210549843540456" y="-242.95340338053907"/>
<rect fill="" height="10" width="10" x="467.7045149754135" y="-39.48149840109639"/>
<rect fill="" height="10" width="10" x="468.34823424228875" y="-141.52809502055734"/>
<rect fill="" height="10" width="10" x="53.14930710773357" y="-243.10872544540885"/>
<rect fill="" height="10" width="10" x="474.57085382208317" y="-345"/>
<rect fill="" height="10" width="10" x="423.9316048278945" y="-73.65235267245318"/>
<rect fill="" height="10" width="10" x="90.27045149754134" y="-344.223389675651"/>
<rect fill="" height="10" width="10" x="100.78453285650424" y="-242.48743718592965"/>
<rect fill="" height="10" width="10" x="369.6446133214126" y="-107.35724074920054"/>
<rect fill="" height="10" width="10" x="369.6446133214126" y="-311.1397898583828"/>
<rect fill="" height="10" width="10" x="-3.4979883772910147" y="-141.06212882594792"/>
<rect fill="" height="10" width="10" x="143.27000447027268" y="-39.48149840109639"/>
<rect fill="" height="10" width="10" x="100.78453285650424" y="-243.26404751027866"/>
<rect fill="" height="10" width="10" x="417.06526598122485" y="-6.242576518958429"/>
<rect fill="" height="10" width="10" x="284.6736700938757" y="-310.3631795340338"/>
<rect fill="" height="10" width="10" x="138.12025033527044" y="-344.8446779351302"/>
<rect fill="" height="10" width="10" x="140.90970049173" y="-208.93787117405208"/>
<rect fill="" height="10" width="10" x="370.28833258828786" y="-5.621288259479214"/>
<rect fill="" height="10" width="10" x="98.20965578900312" y="-140.4408405664687"/>
<rect fill="" height="10" width="10" x="54.007599463567274" y="-73.34170854271356"/>
<rect fill="" height="10" width="10" x="424.14617791685293" y="-141.06212882594792"/>
<rect fill="" height="10" width="10" x="-1.781403665623603" y="-343.60210141617176"/>
<rect fill="" height="10" width="10" x="284.4590970049173" y="-310.3631795340338"/>
<rect fill="" height="10" width="10" x="4.6557890031291915" y="-39.48149840109639"/>
<rect fill="" height="10" width="10" x="462.1256146624944" y="-310.8291457286432"/>
<rect fill="" height="10" width="10" x="51.43272239606616" y="-209.5591594335313"/>
<rect fill="" height="10" width="10" x="95.63477872150202" y="-74.11831886706258"/>
<rect fill="" height="10" width="10" x="140.90970049173" y="-141.21745089081773"/>
<rect fill="" height="10" width="10" x="41.13321412606169" y="-5.931932389218821"/>
<rect fill="" height="10" width="10" x="326.3008493518105" y="-141.52809502055734"/>
<rect fill="" height="10" width="10" x="93.9181940098346" y="-243.10872544540885"/>
<rect fill="" height="10" width="10" x="422.42959320518554" y="-276.5029693924166"/>
<rect fill="" height="10" width="10" x="278.8801966919982" y="-310.5185015989036"/>
<rect fill="" height="10" width="10" x="379.94412159141706" y="-107.97852900867976"/>
<rect fill="" height="10" width="10" x="416.4215467143496" y="-209.09319323892188"/>
<rect fill="" height="10" width="10" x="463.84219937416185" y="-73.18638647784377"/>
<rect fill="" height="10" width="10" x="422.2150201162271" y="-107.97852900867976"/>
<rect fill="" height="10" width="10" x="471.7814036656236" y="-73.80767473732298"/>
<rect fill="" height="10" width="10" x="7.445239159588734" y="-343.60210141617176"/>
<rect fill="" height="10" width="10" x="334.4546267322307" y="-6.397898583828232"/>
<rect fill="" height="10" width="10" x="90.48502458649978" y="-38.86021014161717"/>
<rect fill="" height="10" width="10" x="96.49307107733571" y="-276.34764732754684"/>
<rect fill="" height="10" width="10" x="7.230666070630308" y="-107.82320694380996"/>
<rect fill="" height="10" width="10" x="191.1198033080018" y="-277.2795797167656"/>
<rect fill="" height="10" width="10" x="141.7679928475637" y="-141.06212882594792"/>
<rect fill="" height="10" width="10" x="326.94456861868576" y="-209.09319323892188"/>
<rect fill="" height="10" width="10" x="287.8922664282521" y="-310.8291457286432"/>
<rect fill="" height="10" width="10" x="282.7425122932499" y="-5"/>
<rect fill="" height="10" width="10" x="375.4380867232901" y="-343.7574234810416"/>
<rect fill="" height="10" width="10" x="275.87617344658025" y="-107.82320694380996"/>
<rect fill="" height="10" width="10" x="371.36119803308003" y="-140.4408405664687"/>
<rect fill="" height="10" width="10" x="181.67858739383104" y="-242.02147099132023"/>
<rect fill="" height="10" width="10" x="137.26195797943674" y="-208.78254910918227"/>
<rect fill="" height="10" width="10" x="284.2445239159589" y="-208.78254910918227"/>
<rect fill="" height="10" width="10" x="375.4380867232901" y="-5.776610324349018"/>
<rect fill="" height="10" width="10" x="54.007599463567274" y="-5.310644129739607"/>
<rect fill="" height="10" width="10" x="138.12025033527044" y="-343.9127455459114"/>
<rect fill="" height="10" width="10" x="332.7380420205632" y="-243.10872544540885"/>
<rect fill="" height="10" width="10" x="183.18059901654001" y="-344.37871174052077"/>
<rect fill="" height="10" width="10" x="280.16763522574877" y="-344.8446779351302"/>
<rect fill="" height="10" width="10" x="472.8542691104157" y="-208.62722704431246"/>
<rect fill="" height="10" width="10" x="45.21010281627179" y="-276.65829145728645"/>
<rect fill="" height="10" width="10" x="50.78900312919088" y="-5.465966194609411"/>
<rect fill="" height="10" width="10" x="469.85024586499776" y="-275.8816811329374"/>
<rect fill="" height="10" width="10" x="92.41618238712562" y="-344.5340338053906"/>
<rect fill="" height="10" width="10" x="276.09074653553864" y="-6.242576518958429"/>
<rect fill="" height="10" width="10" x="41.562360303978544" y="-106.58063042485153"/>
<rect fill="" height="10" width="10" x="185.11175681716585" y="-72.87574234810415"/>
<rect fill="" height="10" width="10" x="52.07644166294144" y="-106.89127455459113"/>
<rect fill="" height="10" width="10" x="285.74653553866784" y="-209.09319323892188"/>
<rect fill="" height="10" width="10" x="374.7943674564148" y="-345"/>
<rect fill="" height="10" width="10" x="282.7425122932499" y="-72.72042028323435"/>
<rect fill="" height="10" width="10" x="321.7948144836835" y="-310.5185015989036"/>
<rect fill="" height="10" width="10" x="462.1256146624944" y="-141.37277295568754"/>
<rect fill="" height="10" width="10" x="426.2919088064372" y="-73.80767473732298"/>
<rect fill="" height="10" width="10" x="51.43272239606616" y="-209.09319323892188"/>
<rect fill="" height="10" width="10" x="373.7215020116227" y="-140.90680676107812"/>
<rect fill="" height="10" width="10" x="369.6446133214126" y="-106.73595248972133"/>
<rect fill="" height="10" width="10" x="49.072418417523465" y="-6.397898583828232"/>
<rect fill="" height="10" width="10" x="471.7814036656236" y="-107.82320694380996"/>
<rect fill="" height="10" width="10" x="423.9316048278945" y="-6.397898583828232"/>
<rect fill="" height="10" width="10" x="330.37773804202055" y="-242.79808131566926"/>
<rect fill="" height="10" width="10" x="51.43272239606616" y="-106.73595248972133"/>
<rect fill="" height="10" width="10" x="372.0049172999553" y="-242.64275925079946"/>
<rect fill="" height="10" width="10" x="381.44613321412606" y="-310.5185015989036"/>
<rect fill="" height="10" width="10" x="287.8922664282521" y="-73.18638647784377"/>
<rect fill="" height="10" width="10" x="100.78453285650424" y="-106.73595248972133"/>
<rect fill="" height="10" width="10" x="90.05587840858293" y="-107.20191868433075"/>
<rect fill="" height="10" width="10" x="330.37773804202055" y="-310.5185015989036"/>
<rect fill="" height="10" width="10" x="90.48502458649978" y="-5.621288259479214"/>
<rect fill="" height="10" width="10" x="328.0174340634779" y="-140.90680676107812"/>
<rect fill="" height="10" width="10" x="137.04738489047833" y="-107.20191868433075"/>
</g>
</g>
<g>
<g>
<line stroke="black" stroke-width="1" x1="27.036209208761733" x2="27.036209208761733" y1="0" y2="10"/>
<line stroke="black" stroke-width="1" x1="112.86544479213232" x2="112.86544479213232" y1="0" y2="10"/>
<line stroke="black" stroke-width="1" x1="198.6946803755029" x2="198.6946803755029" y1="0" y2="10"/>
<line stroke="black" stroke-width="1" x1="284.5239159588735" x2="284.5239159588735" y1="0" y2="10"/>
<line stroke="black" stroke-width="1" x1="370.35315154224406" x2="370.35315154224406" y1="0" y2="10"/>
<line stroke="black" stroke-width="1" x1="456.18238712561464" x2="456.18238712561464" y1="0" y2="10"/>
</g>
<line stroke="black" stroke-width="1" x1="0" x2="480" y1="0" y2="0"/>
<g>
<text font-size="12" text-anchor="middle" x="27.036209208761733" y="20">
-800
</text>
<text font-size="12" text-anchor="middle" x="112.86544479213232" y="20">
-400
</text>
<text font-size="12" text-anchor="middle" x="198.6946803755029" y="20">
0
</text>
<text font-size="12" text-anchor="middle" x="284.5239159588735" y="20">
400
</text>
<text font-size="12" text-anchor="middle" x="370.35315154224406" y="20">
800
</text>
<text font-size="12" text-anchor="middle" x="456.18238712561464" y="20">
1200
</text>
</g>
<text font-size="12" text-anchor="middle" x="240" y="30">

</text>
</g>
<g>
<g>
<line stroke="black" stroke-width="1" x1="0" x2="-10" y1="-19.10461397898584" y2="-19.10461397898584"/>
<line stroke="black" stroke-width="1" x1="0" x2="-10" y1="-81.23343992690727" y2="-81.23343992690727"/>
<line stroke="black" stroke-width="1" x1="0" x2="-10" y1="-143.3622658748287" y2="-143.3622658748287"/>
<line stroke="black" stroke-width="1" x1="0" x2="-10" y1="-205.49109182275012" y2="-205.49109182275012"/>
<line stroke="black" stroke-width="1" x1="0" x2="-10" y1="-267.6199177706715" y2="-267.6199177706715"/>
<line stroke="black" stroke-width="1" x1="0" x2="-10" y1="-329.74874371859295" y2="-329.74874371859295"/>
</g>
<line stroke="black" stroke-width="1" x1="0" x2="0" y1="0" y2="-340"/>
<g>
<text dominant-baseline="middle" font-size="12" text-anchor="end" x="-15" y="-19.10461397898584">
-800
</text>
<text dominant-baseline="middle" font-size="12" text-anchor="end" x="-15" y="-81.23343992690727">
-400
</text>
<text dominant-baseline="middle" font-size="12" text-anchor="end" x="-15" y="-143.3622658748287">
0
</text>
<text dominant-baseline="middle" font-size="12" text-anchor="end" x="-15" y="-205.49109182275012">
400
</text>
<text dominant-baseline="middle" font-size="12" text-anchor="end" x="-15" y="-267.6199177706715">
800
</text>
<text dominant-baseline="middle" font-size="12" text-anchor="end" x="-15" y="-329.74874371859295">
1200
</text>
</g>
<text font-size="12" text-anchor="middle" transform="rotate(-90 -48 -170)" x="-48" y="-182">

</text>
</g>
</g>
</svg>